<?xml version="1.0" encoding="UTF-8"?><svg id="Layer_1" xmlns="http://www.w3.org/2000/svg" width="345.3936" height="392.1702" viewBox="0 0 345.3936 392.1702"><defs><style>.cls-1{fill:#1990c0;}.cls-1,.cls-2,.cls-3,.cls-4,.cls-5,.cls-6,.cls-7{fill-rule:evenodd;}.cls-2{fill:#1ea29c;}.cls-8{fill:#fff;}.cls-3{fill:#b7dbdd;}.cls-4{fill:#0c716b;}.cls-5{fill:#9ad2d3;}.cls-6{fill:none;}.cls-9{fill:#231f20;}.cls-7{fill:#0a554f;}</style></defs><path class="cls-1" d="m240.9592,259.1234c-19.0171,18.6219-44.8826,30.2344-73.5058,30.7471v-27.7944l-48.1893,64.5225,48.1893,64.4865v-27.5594c54.0588-.549,102.4432-24.7226,135.319-62.6745h0l-41.7742,4.9231-20.0389-46.651h0Z"/><path class="cls-2" d="m327.4453,135.62l-16.6484,38.6998-50.3817-5.9451h0c2.205,8.5441,3.3852,17.5212,3.3852,26.773,0,18.6985-4.8035,36.2561-13.1475,51.5719l-23.4586-13.5038,31.763,73.9739,79.943-9.4898-24.4834-14.1321c14.6418-26.181,22.9858-56.297,22.9858-88.42,0-20.8676-3.5009-40.9052-9.9573-59.5277h0Z"/><path class="cls-7" d="m178.9912,1.0885v27.548c-54.0308.5914-102.3893,24.7546-135.3085,62.6951l41.7799-4.9582,20.0466,46.6734c19.0179-18.613,44.8923-30.2221,73.482-30.7345v27.7464l48.1998-64.4671L178.9912,1.0885h0Z"/><path class="cls-4" d="m199.9988,31.0187l25.1884,33.7216-30.3417,40.6096c26.4842,7.4397,48.8396,24.7515,62.9313,47.6954l-24.6793,14.245,79.9351,9.4428,31.7598-73.9382-23.2183,13.379c-26.0941-43.5642-69.939-75.2797-121.5752-85.1551h0Z"/><path class="cls-3" d="m85.9171,85.4373L5.9084,94.9237l23.008,13.2658c-14.9317,26.3797-23.4812,56.8493-23.4812,89.3294,0,20.8246,3.5071,40.8624,9.9688,59.4847l16.6621-38.6998,50.4231,5.9851c-2.1671-8.5838-3.3483-17.5182-3.3483-26.7699,0-19.0556,4.9629-36.9274,13.6315-52.4779l24.9734,14.4065-31.8288-74.0101h0Z"/><path class="cls-5" d="m32.3932,215.4338L.598,289.3766l23.245-13.3793c26.1204,43.562,70.0095,75.2781,121.6978,85.1573l-25.2138-33.6859,30.3723-40.6502c-26.5142-7.4367-48.8889-24.7125-62.9947-47.6535l24.7009-14.2453-80.0123-9.4858h0Z"/><polygon class="cls-6" points=".598 391.0851 344.7956 391.0851 344.7956 1.0851 .598 1.0851 .598 391.0851 .598 391.0851"/><polygon class="cls-6" points=".598 391.0851 344.7956 391.0851 344.7956 1.0851 .598 1.0851 .598 391.0851 .598 391.0851"/><polygon class="cls-6" points=".598 391.0851 344.7956 391.0851 344.7956 1.0851 .598 1.0851 .598 391.0851 .598 391.0851"/><polygon class="cls-6" points=".598 391.0851 344.7956 391.0851 344.7956 1.0851 .598 1.0851 .598 391.0851 .598 391.0851"/><polygon class="cls-6" points=".598 391.0851 344.7956 391.0851 344.7956 1.0851 .598 1.0851 .598 391.0851 .598 391.0851"/><polygon class="cls-6" points=".598 391.0851 344.7956 391.0851 344.7956 1.0851 .598 1.0851 .598 391.0851 .598 391.0851"/><path class="cls-8" d="m92.8433,78.9501l-1.4629.4692-2.2676-7.0693-1.9219,1.4277-.3965-1.2334,3.0283-2.3643.1875-.0601,2.833,8.8301Z"/><path class="cls-8" d="m96.4146,76.0981c.2744-.0879.5098-.0786.71.0288.1992.1074.335.2778.4102.5122.0742.2285.0605.4429-.04.6421-.1016.1992-.2881.3433-.5615.4312-.2617.084-.4941.0747-.6953-.0249-.2002-.0996-.3379-.2661-.4131-.4995-.0752-.2344-.0635-.4526.0361-.6558.0986-.2031.2832-.3477.5537-.4341Z"/><path class="cls-8" d="m101.2086,76.2661l-1.5234.4888-2.8232-8.7998,1.5225-.4888,2.8242,8.7998Z"/><path class="cls-8" d="m101.607,72.4794c-.3242-1.0078-.3496-1.8926-.0781-2.6528s.8008-1.2661,1.5859-1.5181c.6934-.2227,1.3301-.1611,1.9131.1855l-1.0742-3.3486,1.4678-.4717,2.9795,9.2842-1.3291.4268-.29-.6533c-.2686.6729-.7705,1.127-1.5029,1.3623-.7656.2456-1.4844.1357-2.1553-.3286-.6719-.4653-1.1768-1.2271-1.5166-2.2856Zm1.5088-.3457c.2139.665.5078,1.1426.8838,1.4336.375.291.7988.3599,1.2695.209.6006-.1929.9541-.6016,1.0605-1.2266l-.8965-2.792c-.4385-.438-.957-.5601-1.5576-.3672-.4756.1523-.7822.458-.9189.918-.1367.459-.084,1.0674.1592,1.8252Z"/><path class="cls-8" d="m112.8521,72.6635c-.9307.2983-1.7793.2476-2.5459-.1538-.7656-.4004-1.3057-1.0889-1.6182-2.0635l-.0586-.1816c-.21-.6533-.2705-1.2764-.1836-1.8701.0869-.5957.3125-1.1084.6758-1.5405s.8252-.7378,1.3857-.9175c.8906-.2856,1.6689-.2231,2.3369.1904.668.4111,1.1689,1.1372,1.502,2.1772l.1904.5918-4.2734,1.3711c.2178.5269.5352.896.9531,1.1079.416.2129.8643.2422,1.3438.0884.6729-.2158,1.1338-.6641,1.3828-1.3428l1.0332.5005c-.1357.4746-.3887.8906-.7568,1.2461-.3672.356-.8232.6221-1.3672.7964Zm-1.9736-5.5474c-.4023.1294-.6816.375-.8398.7373-.1562.3613-.1895.8047-.0957,1.3311l2.7979-.8984-.0352-.1094c-.1904-.4805-.4395-.8096-.751-.9883-.3105-.1787-.6689-.2031-1.0762-.0723Z"/><path class="cls-8" d="m115.8404,64.3574l.2842.7427c.2959-.7393.8379-1.2349,1.623-1.4868,1.3613-.437,2.3057.1201,2.8301,1.6709l1.3867,4.3223-1.4688.4707-1.3594-4.2363c-.1338-.416-.3223-.6934-.5654-.8359-.2432-.1411-.5684-.1475-.9756-.0171-.5918.1899-.9473.6001-1.0654,1.2285l1.4932,4.6543-1.4688.4712-2.0977-6.54,1.3838-.4443Z"/><path class="cls-8" d="m122.692,60.4067l.5098,1.5889,1.1553-.3706.3486,1.0879-1.1553.3706,1.1719,3.6514c.0801.25.1875.4146.3223.4937.1338.0781.3281.0776.582-.0039.1689-.0542.334-.1299.4941-.2266l.3643,1.1367c-.3047.2002-.6123.3506-.9229.4502-1.1279.3623-1.8916-.0801-2.291-1.3242l-1.1895-3.7061-1.0752.3452-.3486-1.0879,1.0752-.3452-.5098-1.5889,1.4688-.4712Z"/><path class="cls-8" d="m124.9351,59.5663c-.0723-.2256-.0605-.4365.0342-.6309.0957-.1953.2764-.335.542-.4199.2666-.0859.4961-.0771.6885.0254.1934.1021.3252.2666.3975.4922.0723.2217.0586.4292-.04.6221-.0977.1943-.2793.333-.5459.4189-.2656.085-.4941.0771-.6836-.0244-.1895-.1006-.3203-.2617-.3926-.4834Zm4.2031,7.7378l-1.4688.4712-2.0977-6.54,1.4688-.4712,2.0977,6.54Z"/><path class="cls-8" d="m131.2535,66.6249l-1.749-5.4521-.9971.3203-.3496-1.0879.998-.3203-.1924-.5977c-.2324-.7256-.2119-1.3506.0654-1.874.2764-.5244.7773-.9023,1.502-1.1348.2578-.083.543-.1357.8574-.1567l.332,1.1611c-.1719.0195-.3643.064-.5771.1323-.7012.2251-.9365.6973-.7051,1.4189l.1865.5801,1.3291-.4268.3486,1.0879-1.3291.4268,1.749,5.4521-1.4688.4707Z"/><path class="cls-8" d="m136.7379,62.5458l-.0938-4.8633,1.5654-.5029-.1826,8.3652c-.0459,1.229-.5469,1.9951-1.502,2.3013-.2129.0688-.46.1079-.7412.1187l-.3662-1.1416.2832-.0718c.3711-.1187.6279-.2759.7725-.4707.1436-.1948.2197-.4692.2256-.8223l.0322-.6294-4.3838-5.7676,1.583-.5083,2.8076,3.9927Z"/><path class="cls-8" d="m148.9322,57.4199c.3252,1.0117.3545,1.8906.0879,2.6406-.2656.75-.7861,1.25-1.5596,1.498-.7168.2305-1.3672.1777-1.9492-.1543l.9941,3.1006-1.4688.4712-2.9043-9.0547,1.3535-.4341.2734.6455c.2637-.6621.7656-1.1118,1.5078-1.3496.7969-.2559,1.5186-.1602,2.1621.2891.6436.4482,1.1357,1.2012,1.4746,2.2568l.0283.0908Zm-1.5029.3413c-.209-.6523-.5059-1.1274-.8877-1.4277-.3838-.2993-.8164-.3716-1.2998-.2163-.6006.1924-.9531.5791-1.0557,1.1592l.9307,2.9004c.4297.4224.9463.5366,1.5508.3428.4668-.1499.7725-.4561.915-.9175.1436-.4604.0928-1.0742-.1533-1.8408Z"/><path class="cls-8" d="m152.9586,53.9277c-.2041.0293-.4082.0781-.6133.1436-.6738.2158-1.0439.6191-1.1123,1.21l1.4355,4.4727-1.4688.4717-2.0986-6.54,1.4023-.4502.2715.7207c.1719-.6831.5723-1.124,1.2012-1.3257.209-.0674.3906-.0952.5469-.0825l.4355,1.3799Z"/><path class="cls-8" d="m152.9136,50.5888c-.0723-.2256-.0605-.4365.0342-.6304.0957-.1958.2764-.3354.542-.4204.2656-.0854.4961-.0771.6885.0254.1924.1021.3252.2666.3975.4922.0723.2217.0586.4292-.04.6221-.0977.1943-.2803.3335-.5459.4189-.2656.085-.4941.0771-.6846-.0239-.1895-.1011-.3193-.2622-.3916-.4839Zm4.2031,7.7378l-1.4688.4712-2.0986-6.54,1.4688-.4712,2.0986,6.54Z"/><path class="cls-8" d="m157.3716,54.5707c-.2051-.6396-.2637-1.2573-.1748-1.8535.0898-.5942.3184-1.104.6895-1.5278.3711-.4229.8545-.73,1.4512-.9214.8828-.2827,1.6895-.23,2.4219.1636.7324.3906,1.2715,1.0488,1.6172,1.9736l.1162.3428c.207.6445.2676,1.2603.1836,1.8477-.0859.5869-.3135,1.0938-.6855,1.5195-.373.4258-.8604.7363-1.4658.9307-.9219.2959-1.7588.2261-2.5107-.2114-.751-.4365-1.291-1.167-1.6191-2.1904l-.0234-.0732Zm1.5098-.3433c.2158.6729.5244,1.1543.9238,1.4473.4004.2905.8486.3569,1.3438.1982.4961-.1592.8193-.4766.9717-.9517.1514-.4751.1074-1.0864-.1309-1.8325-.2129-.6602-.5225-1.1387-.9307-1.4341-.4082-.2959-.8564-.3657-1.3438-.209-.4795.1538-.7988.4663-.959.939-.1602.4707-.1182,1.085.125,1.8428Z"/><path class="cls-8" d="m167.5191,49.2553c-.2041.0298-.4082.0786-.6143.144-.6729.2158-1.043.6191-1.1113,1.21l1.4346,4.4727-1.4688.4712-2.0977-6.54,1.4023-.4497.2705.7207c.1729-.6836.5732-1.124,1.2021-1.3262.209-.0669.3906-.0952.5459-.0825l.4365,1.3799Z"/><path class="cls-8" d="m167.4742,45.9169c-.0723-.2256-.0605-.4365.0342-.6309.0947-.1953.2764-.335.542-.4199.2656-.0859.4951-.0771.6875.0254.1934.1021.3262.2661.3984.4917.0713.2217.0586.4297-.04.6226-.0986.1943-.2803.333-.5459.4189-.2656.085-.4941.0771-.6846-.0244-.1895-.1006-.3203-.2617-.3916-.4834Zm4.2031,7.7373l-1.4688.4717-2.0986-6.54,1.4688-.4717,2.0986,6.54Z"/><path class="cls-8" d="m172.5074,44.4218l.5098,1.5889,1.1538-.3701.3496,1.0879-1.1538.3701,1.1714,3.6514c.0801.25.1875.415.3223.4937s.3281.0776.582-.0034c.168-.0547.334-.1299.4941-.2266l.3633,1.1367c-.3027.2002-.6113.3506-.9219.4502-1.1289.3618-1.8926-.0801-2.2905-1.3242l-1.1895-3.7061-1.0762.3452-.3486-1.0879,1.0752-.3452-.5098-1.5889,1.4688-.4717Z"/><path class="cls-8" d="m179.0049,48.9833l-.0938-4.8633,1.5645-.502-.1816,8.3652c-.0469,1.2285-.5469,1.9941-1.502,2.3008-.2129.0684-.4609.1079-.7422.1182l-.3652-1.1416.2832-.0713c.3691-.1191.627-.2759.7715-.4707s.2207-.4688.2266-.8223l.0312-.6294-4.3848-5.7681,1.584-.5078,2.8086,3.9922Z"/><path class="cls-8" d="m100.5201,89.2031c-.3291-1.0234-.3555-1.9097-.0811-2.6602.2754-.751.8115-1.2534,1.6094-1.5098.7295-.2339,1.3896-.1631,1.9805.21l-.1221-.6724,1.3057-.4189,2.9043,9.0537-1.4688.4712-.9844-3.0703c-.2832.5884-.7666.9922-1.4512,1.2119-.7812.251-1.5059.1475-2.1738-.3125-.667-.459-1.1738-1.2266-1.5186-2.3027Zm1.5088-.3428c.2148.668.5156,1.1494.9023,1.4468.3857.2954.8125.3687,1.2793.2183.5801-.186.9316-.5723,1.0557-1.1572l-.9541-2.9746c-.4355-.3848-.9385-.4863-1.5107-.3027-.4678.1504-.7744.4565-.9229.917-.1475.4609-.0977,1.0781.1504,1.8525Z"/><path class="cls-8" d="m112.648,88.2719c-.2686.646-.7998,1.0967-1.5938,1.3511-.709.2275-1.3125.1929-1.8105-.1064-.498-.2979-.873-.8398-1.125-1.624l-1.3594-4.2373,1.4688-.4712,1.3535,4.2188c.2666.8301.7441,1.1343,1.4336.9136.7129-.229,1.1123-.6396,1.1982-1.2314l-1.5068-4.6963,1.4688-.4707,2.0977,6.5391-1.3838.4438-.2412-.6289Z"/><path class="cls-8" d="m118.6881,87.1738c-.9307.2988-1.7793.248-2.5459-.1533-.7656-.4009-1.3057-1.0879-1.6182-2.0625l-.0586-.1826c-.21-.6523-.2705-1.2764-.1836-1.8706.0869-.5952.3125-1.1084.6758-1.5405s.8252-.7378,1.3857-.9175c.8896-.2856,1.6689-.2231,2.3369.1904.668.4116,1.1689,1.1372,1.502,2.1772l.1904.5918-4.2734,1.3711c.2178.5269.5352.8955.9531,1.1084.416.2119.8652.2417,1.3438.0879.6738-.2158,1.1338-.6641,1.3828-1.3428l1.0332.501c-.1357.4746-.3887.8906-.7568,1.2466-.3672.356-.8232.6206-1.3672.7954Zm-1.9736-5.5474c-.4023.1294-.6816.3755-.8398.7368-.1562.3618-.1895.8057-.0957,1.3311l2.7979-.8975-.0352-.1094c-.1904-.4814-.4395-.8105-.751-.9883-.3105-.1787-.6689-.2031-1.0762-.0728Z"/><path class="cls-8" d="m125.5074,82.8925c-.084-.2627-.2559-.4268-.5156-.4951s-.6553-.0732-1.1895-.0176c-.5332.0547-.9922.0557-1.3789.002-.8467-.1191-1.3789-.5151-1.5947-1.188-.1807-.5645-.0947-1.1123.2598-1.6431.3545-.5312.8975-.915,1.6309-1.1504.7822-.2505,1.4756-.2598,2.0811-.0273.6055.2319,1.0068.6558,1.2051,1.2729l-1.4688.4712c-.0908-.2822-.2705-.4829-.54-.6035-.2695-.1201-.5781-.1245-.9248-.0137-.3223.1035-.5615.2627-.7168.4771s-.1934.4468-.1133.6968c.0732.2256.2236.3701.4531.4351.2295.063.6523.0664,1.2695.0083.6172-.0576,1.1182-.0518,1.5029.0176.3838.0703.6953.2021.9336.3975s.4131.4683.5254.8179c.1885.5879.0986,1.1436-.2725,1.6646-.3711.5205-.9502.9082-1.7402,1.1616-.5361.1719-1.0449.2285-1.5254.1694-.4814-.0586-.8926-.2197-1.2354-.4834-.3428-.2642-.5762-.5908-.7021-.9814l1.4277-.458c.1309.3398.3467.5654.6484.6748s.6533.1011,1.0518-.0269c.3867-.1245.6572-.2925.8115-.5039.1543-.2124.1934-.437.1172-.6743Z"/><path class="cls-8" d="m128.0328,75.0761l.5098,1.5898,1.1543-.3706.3496,1.0879-1.1553.3706,1.1709,3.6504c.0811.25.1875.4146.3223.4932.1348.0791.3291.0781.583-.0034.1689-.0542.333-.1289.4932-.2256l.3652,1.1357c-.3047.2002-.6123.3506-.9229.4497-1.1279.3623-1.8916-.0796-2.291-1.3237l-1.1895-3.7051-1.0752.3452-.3496-1.0879,1.0762-.3452-.5098-1.5898,1.4688-.4712Z"/><path class="cls-8" d="m130.2759,74.2353c-.0723-.2256-.0605-.436.0342-.6299.0957-.1953.2754-.3354.542-.4209.2656-.085.4951-.0771.6885.0259.1924.1021.3252.2661.3975.4917.0713.2217.0576.4297-.04.6226-.0977.1938-.2803.3335-.5459.4185-.2656.0854-.4941.0781-.6846-.0234-.1895-.1011-.3203-.2627-.3916-.4844Zm4.2031,7.7383l-1.4688.4707-2.0986-6.5391,1.4688-.4707,2.0986,6.5391Z"/><path class="cls-8" d="m134.7339,78.2187c-.2061-.6406-.2637-1.2588-.1748-1.8535.0889-.5957.3193-1.1055.6895-1.5293.3711-.4229.8545-.7295,1.4502-.9209.8828-.2832,1.6904-.23,2.4219.1631.7334.3906,1.2725,1.0493,1.6172,1.9736l.1172.3428c.207.6445.2676,1.2607.1826,1.8477-.085.5874-.3135,1.0938-.6846,1.52-.373.4253-.8613.7358-1.4658.9302-.9229.2959-1.7598.2266-2.5107-.2109-.751-.4365-1.291-1.167-1.6201-2.1904l-.0225-.0723Zm1.5098-.3447c.2148.6729.5234,1.1548.9238,1.4473.4004.291.8477.3574,1.3438.1982s.8193-.4766.9707-.9512c.1523-.4756.1094-1.0864-.1309-1.8315-.2109-.6611-.5215-1.1401-.9307-1.4351-.4072-.2959-.8555-.3657-1.3428-.209-.4795.1533-.7988.4663-.959.9385-.1602.4707-.1191,1.085.125,1.8428Z"/><path class="cls-8" d="m142.3892,72.2226l.2852.7422c.2959-.7402.8369-1.2354,1.6221-1.4878,1.3623-.437,2.3057.1206,2.8301,1.6704l1.3867,4.3223-1.4688.4717-1.3594-4.2363c-.1338-.416-.3223-.6938-.5654-.8354-.2432-.1421-.5674-.1484-.9756-.0181-.5918.1904-.9463.6006-1.0654,1.2295l1.4932,4.6533-1.4678.4717-2.0986-6.5391,1.3838-.4443Z"/><path class="cls-8" d="m153.105,74.0375c-.084-.2627-.2559-.4272-.5156-.4951-.2598-.0684-.6553-.0737-1.1895-.0181-.5332.0547-.9932.0562-1.3789.002-.8467-.1191-1.3789-.5146-1.5947-1.1875-.1807-.5645-.0947-1.1128.2588-1.6436.3545-.5312.8984-.9146,1.6318-1.1499.7822-.2505,1.4756-.2603,2.0811-.0278s1.0068.6562,1.2051,1.2734l-1.4688.4707c-.0908-.2822-.2705-.4829-.54-.603s-.5781-.1245-.9248-.0137c-.3223.1035-.5615.2622-.7168.4771-.1553.2144-.1934.4463-.1133.6963.0723.2256.2236.3701.4531.4355.2295.063.6523.0659,1.2695.0078.6172-.0576,1.1172-.0513,1.5029.0181.3838.0703.6953.2021.9326.397.2393.1953.4141.4688.5264.8184.1885.5879.0986,1.1436-.2725,1.6641s-.9502.9082-1.7402,1.1616c-.5361.1724-1.0449.2285-1.5264.1694-.4805-.0586-.8916-.2197-1.2344-.4834s-.5762-.5908-.7021-.9814l1.4268-.4575c.1309.3394.3477.5649.6494.6748.3018.1089.6523.1011,1.0518-.0273.3867-.124.6572-.2925.8115-.5034.1543-.2124.1934-.437.1172-.6743Z"/><path class="cls-8" d="m163.3882,72.6972c-.1055-.1035-.2266-.2891-.3652-.5552-.3105.6372-.8047,1.064-1.4824,1.2812-.6562.2109-1.252.1953-1.7871-.0454-.5361-.2432-.8926-.6392-1.0693-1.1919-.2236-.6963-.1357-1.314.2617-1.853.3984-.5391,1.0791-.9619,2.042-1.2715l.9004-.2886-.1377-.4297c-.1084-.3389-.29-.5786-.5449-.7212-.2549-.1436-.5752-.1523-.9619-.0283-.334.1074-.582.2783-.7422.5137-.1592.2363-.1982.4834-.1152.7412l-1.4688.4717c-.1152-.3594-.1035-.7329.0342-1.1216.1367-.3887.3818-.7368.7334-1.0454.3525-.3091.7812-.5435,1.2842-.7051.7656-.2456,1.4385-.249,2.0166-.0107.5791.2393.9863.7041,1.2217,1.3984l.9463,2.9492c.1895.5889.4219,1.0312.7002,1.3286l.0322.1025-1.498.481Zm-1.9541-.54c.291-.0928.541-.251.752-.4736.21-.2236.3428-.4746.3945-.7534l-.3955-1.2334-.792.2539c-.5439.1743-.9229.4009-1.1357.6782s-.2637.5889-.1523.9355c.0898.2822.2559.4766.4971.5845.2402.1069.5186.1094.832.0083Z"/><path class="cls-8" d="m165.442,64.8261l.2842.7422c.2959-.7402.8379-1.2363,1.623-1.4883,1.3613-.4365,2.3057.1211,2.8291,1.6709l1.3877,4.3223-1.4688.4712-1.3594-4.2363c-.1338-.416-.3223-.6938-.5654-.8354s-.5684-.1484-.9756-.0176c-.5918.1899-.9473.6001-1.0654,1.2295l1.4932,4.6533-1.4688.4712-2.0977-6.5391,1.3838-.4438Z"/><path class="cls-8" d="m171.7222,66.3642c-.3242-1.0078-.3496-1.8926-.0781-2.6519.2715-.7612.8008-1.2671,1.5859-1.519.6929-.2227,1.3296-.1611,1.9136.1855l-1.0762-3.3477,1.4688-.4717,2.9805,9.2832-1.3301.4268-.2891-.6533c-.2695.6729-.7695,1.127-1.5039,1.3623-.7656.2456-1.4844.1357-2.1548-.3276-.6719-.4663-1.1768-1.228-1.5166-2.2866Zm1.5088-.3457c.2134.665.5083,1.1426.8833,1.4336s.7988.3608,1.2695.21c.6016-.1929.9551-.6025,1.0605-1.2275l-.8965-2.792c-.4375-.438-.957-.5601-1.5566-.3672-.4766.1523-.7827.458-.9194.918-.1367.459-.084,1.0674.1592,1.8252Z"/><path class="cls-8" d="m115.5347,95.3495c-.0723-.2246-.0605-.4365.0342-.6309.0957-.1943.2764-.335.542-.4204.2666-.0854.4961-.0757.6885.0259s.3252.2671.3975.4917c.0713.2227.0586.4292-.0391.6235-.0986.1934-.2803.332-.5469.4175-.2656.0854-.4941.0776-.6836-.0229-.1904-.1016-.3213-.2617-.3926-.4844Zm4.2031,7.7373l-1.4688.4717-2.0977-6.5391,1.4688-.4717,2.0977,6.5391Z"/><path class="cls-8" d="m120.6011,95.5976l.2852.7422c.2959-.7397.8369-1.2354,1.6221-1.4873,1.3623-.4375,2.3057.1206,2.8301,1.6714l1.3867,4.3213-1.4688.4712-1.3594-4.2363c-.1338-.415-.3213-.6938-.5654-.8354-.2432-.1416-.5684-.1479-.9756-.0176-.5918.1899-.9463.6001-1.0654,1.229l1.4941,4.6533-1.4688.4717-2.0986-6.5391,1.3838-.4443Z"/><path class="cls-8" d="m126.8814,97.1357c-.3232-1.0078-.3486-1.8921-.0771-2.6514.2715-.7612.7998-1.2671,1.585-1.5195.6934-.2222,1.3311-.1602,1.9131.1865l-1.0742-3.3486,1.4688-.4707,2.9785,9.2832-1.3291.4263-.29-.6533c-.2686.6733-.7695,1.127-1.502,1.3618-.7666.2461-1.4844.1362-2.1562-.3271-.6719-.4663-1.1768-1.2275-1.5166-2.2871Zm1.5098-.3447c.2129.665.5068,1.1436.8828,1.4331.376.291.7988.3608,1.2705.2095.5996-.1924.9531-.6016,1.0586-1.2275l-.8955-2.791c-.4385-.4375-.957-.5605-1.5576-.3682-.4756.1528-.7812.459-.918.9189-.1377.4595-.084,1.0674.1592,1.8252Z"/><path class="cls-8" d="m132.5679,89.8837c-.0723-.2246-.0615-.4355.0332-.6299.0957-.1943.2773-.3354.543-.4209.2656-.085.4951-.0762.6875.0264.1934.1016.3262.2666.3984.4912.0713.2227.0576.4297-.041.624-.0977.1924-.2793.332-.5449.417-.2656.0854-.4941.0781-.6855-.0225-.1895-.1016-.3193-.2627-.3906-.4854Zm4.2021,7.7383l-1.4688.4712-2.0986-6.5391,1.4688-.4712,2.0986,6.5391Z"/><path class="cls-8" d="m140.7183,95.1953c.3672-.1182.6367-.3218.8096-.6133.1738-.2905.2178-.5967.1328-.915l1.3838-.4443c.1152.4126.1094.832-.0146,1.2607-.125.4287-.3574.8125-.6982,1.1475-.3408.3369-.748.5801-1.2188.7314-.9141.2935-1.7354.2305-2.4609-.1904-.7266-.4199-1.2568-1.1523-1.5918-2.1953l-.0488-.1514c-.3184-.9951-.3086-1.8774.0312-2.6465.3398-.7695.9697-1.3008,1.8877-1.5957.7783-.25,1.4844-.2266,2.1201.0693.6338.2974,1.082.8096,1.3428,1.5391l-1.3838.4443c-.1367-.3701-.3633-.6377-.6816-.8018-.3164-.165-.6611-.1885-1.0312-.0693-.4756.1523-.7861.4429-.9336.8701-.1484.4277-.1104.9922.1104,1.6948l.0752.2354c.2275.709.5254,1.1973.8926,1.4634.3682.2666.7939.3223,1.2773.167Z"/><path class="cls-8" d="m148.7554,93.7763c-.1045-.1035-.2256-.2896-.3643-.5552-.3115.6372-.8057,1.064-1.4824,1.2812-.6572.2104-1.2529.1948-1.7881-.0454-.5352-.2432-.8916-.6396-1.0684-1.1914-.2236-.6973-.1367-1.3145.2617-1.8535s1.0791-.9624,2.042-1.2715l.9004-.2891-.1377-.4297c-.1084-.3389-.29-.5786-.5449-.7212-.2539-.1431-.5752-.1523-.9619-.0283-.335.1074-.582.2783-.7422.5142-.1592.2363-.1982.4834-.1162.7412l-1.4688.4712c-.1143-.3594-.1025-.7324.0352-1.1216.1367-.3887.3818-.7363.7334-1.0449.3525-.3096.7803-.5439,1.2842-.7051.7656-.2461,1.4375-.2495,2.0166-.0107s.9854.7051,1.2217,1.3984l.9463,2.9492c.1895.5889.4219,1.0308.7002,1.3291l.0322.1016-1.499.4814Zm-1.9531-.54c.291-.0928.541-.251.752-.4736.21-.2236.3418-.4741.3945-.7539l-.3955-1.2334-.792.2544c-.5439.1743-.9229.4004-1.1357.6787-.2129.2764-.2646.5879-.1533.9346.0908.2822.2559.4771.498.5845.2402.1074.5176.1094.832.0088Z"/><path class="cls-8" d="m150.7769,84.1616l.5098,1.5898,1.1553-.3706.3486,1.0879-1.1543.3706,1.1719,3.6504c.0801.25.1875.4146.3213.4937.1348.0786.3291.0786.583-.0029.168-.0542.333-.1299.4932-.2266l.3652,1.1357c-.3047.2012-.6123.3506-.9229.4502-1.1289.3623-1.8926-.0801-2.291-1.3242l-1.1895-3.7051-1.0762.3452-.3486-1.0879,1.0752-.3452-.5098-1.5898,1.4688-.4712Z"/><path class="cls-8" d="m154.1363,88.3769c-.2051-.6396-.2637-1.2588-.1748-1.8535.0889-.5957.3193-1.1055.6895-1.5283.3711-.4238.8545-.7305,1.4512-.9219.8818-.2832,1.6904-.23,2.4219.1631.7324.3906,1.2715,1.0493,1.6162,1.9736l.1172.3428c.207.6445.2676,1.2607.1836,1.8477-.0859.5874-.3145,1.0938-.6855,1.521-.373.4243-.8613.7349-1.4648.9292-.9238.2959-1.7598.2266-2.5117-.21-.751-.4375-1.291-1.168-1.6191-2.1914l-.0234-.0723Zm1.5098-.3447c.2158.6729.5234,1.1548.9238,1.4473.4004.291.8486.3574,1.3438.1982.4961-.1592.8193-.4766.9707-.9512.1523-.4756.1094-1.0864-.1309-1.8315-.2109-.6602-.5215-1.1392-.9297-1.4355-.4082-.2954-.8564-.3652-1.3438-.2085-.4795.1533-.7988.4663-.959.9385-.1602.4707-.1182,1.085.125,1.8428Z"/><path class="cls-8" d="m164.2838,83.0615c-.2041.0283-.4092.0771-.6143.1431-.6719.2158-1.043.6187-1.1113,1.2095l1.4346,4.4727-1.4688.4717-2.0986-6.5391,1.4023-.4502.2715.7197c.1719-.6831.5723-1.124,1.2012-1.3257.21-.0669.3916-.0952.5469-.0815l.4365,1.3799Z"/><path class="cls-8" d="m169.9742,85.0082c-.084-.2627-.2549-.4272-.5137-.4946-.2607-.0679-.6562-.0742-1.1904-.0186-.5332.0562-.9932.0562-1.3789.002-.8467-.1191-1.3789-.5146-1.5947-1.1875-.1807-.5645-.0947-1.1123.2598-1.6431.3535-.5317.8975-.915,1.6309-1.1504.7812-.2505,1.4756-.2603,2.0801-.0278.6064.2324,1.0078.6562,1.2061,1.2744l-1.4688.4707c-.0908-.2832-.2705-.4834-.54-.604-.2695-.1201-.5781-.1245-.9248-.0137-.3223.1035-.5615.2622-.7178.4771-.1543.2144-.1924.4463-.1123.6963.0732.2256.2236.3701.4531.4355.2295.064.6523.0664,1.2695.0093.6162-.0591,1.1172-.0527,1.5029.0166.3838.0708.6953.2021.9336.397.2383.1953.4131.4688.5254.8184.1885.5889.0977,1.1436-.2725,1.6641-.3711.5215-.9502.9082-1.7412,1.1621-.5352.1719-1.0439.2285-1.5244.1689-.4814-.0586-.8936-.2197-1.2354-.4834-.3428-.2637-.5762-.5908-.7021-.9814l1.4268-.4575c.1309.3403.3477.5649.6494.6748s.6523.1011,1.0518-.0269c.3867-.1245.6572-.293.8115-.5039.1543-.2114.1924-.437.1162-.6743Z"/><path class="cls-8" d="m25.5245,180.477l1.2354.3188-.0479.1836c-.2031.8394-.1455,1.5674.1719,2.1816.3174.6152.875,1.0757,1.6709,1.3809-.3818-.6094-.4756-1.2871-.2832-2.0332.2041-.791.6436-1.3428,1.3184-1.6562.6748-.313,1.4531-.3555,2.335-.1284.9092.2344,1.5762.6909,2.002,1.3716.4258.6797.5264,1.4541.3027,2.3228-.2305.8931-.7461,1.5327-1.5488,1.9185-.8027.3848-1.7393.4395-2.8105.1641l-.5098-.1318c-1.5693-.4043-2.7002-1.1035-3.3916-2.0967-.6914-.9937-.8535-2.208-.4844-3.6421l.04-.1533Zm3.8584,2.7056c-.084.3271-.0693.6514.0439.9712.1152.3208.3096.5835.584.7896l.4551.1177c.6641.1714,1.2266.1675,1.6895-.0103s.7529-.4873.8662-.9307c.1143-.4424.0381-.8359-.2266-1.1787-.2656-.3442-.6689-.5859-1.21-.7256-.541-.1392-1.0156-.1216-1.4229.0532-.4072.1753-.667.479-.7793.9136Z"/><path class="cls-8" d="m33.8546,178.8544c.0713-.2783.2061-.4731.4023-.584.1973-.1113.4141-.1357.6523-.0742.2334.0601.4072.1851.5225.377.1143.1914.1357.4268.0645.7051-.0693.2656-.1992.4575-.3906.5742-.1924.1162-.4062.144-.6445.083-.2383-.0615-.416-.188-.5352-.3809-.1182-.1924-.1426-.4248-.0713-.7002Z"/><path class="cls-8" d="m34.3448,169.2206l-.4463,1.7334,3.4424.8877-.4014,1.5547-8.9502-2.3066.8115-3.1475c.2666-1.0327.7031-1.7695,1.3115-2.2119.6074-.4414,1.3506-.5498,2.2285-.3232.5986.1543,1.0635.4282,1.3926.8208.3301.3931.5371.8755.6211,1.4482l4.2451-1.0493.0801.0205-.4297,1.666-3.9053.9072Zm-1.7002,1.4102l.4121-1.5977c.1348-.5244.1074-.9688-.0801-1.332-.1885-.3633-.5117-.6035-.9707-.7217-.4805-.124-.8857-.084-1.2178.1216-.333.2051-.5723.5767-.7207,1.1157l-.4229,1.6411,3,.7729Z"/><path class="cls-8" d="m39.8047,162.788c-.2441.9463-.7402,1.6372-1.4883,2.0718-.7471.4341-1.6172.5234-2.6084.2681l-.1855-.0479c-.6631-.1709-1.2236-.4521-1.6787-.8428-.458-.3906-.7715-.8555-.9434-1.3931-.1709-.5376-.1836-1.0923-.0371-1.6616.2334-.9053.7031-1.5308,1.4082-1.875.7051-.3457,1.5869-.3818,2.6436-.1094l.6025.1553-1.1201,4.3457c.5615.0967,1.042.0254,1.4443-.2148.4033-.2383.667-.6025.792-1.0898.1768-.6846.0439-1.3125-.3975-1.8857l.9746-.6074c.3291.3691.5459.8037.6504,1.3057.1045.501.0859,1.0278-.0566,1.5811Zm-5.7441-1.2905c-.1064.4097-.0479.7773.1748,1.104.2217.3257.5801.5898,1.0742.791l.7334-2.8457-.1113-.0283c-.5078-.0967-.9189-.0605-1.2363.1074-.3164.167-.5283.458-.6348.8716Z"/><path class="cls-8" d="m39.8214,154.7363c-.2656-.0693-.4961-.0112-.6924.1719-.1963.1836-.4131.5146-.6494.9961-.2383.4805-.4824.8701-.7354,1.1675-.5527.6528-1.1699.8911-1.8545.7148-.5742-.1479-.9922-.5127-1.252-1.0962-.2598-.583-.2949-1.2471-.1025-1.9932.2041-.7939.5674-1.3857,1.0869-1.7744.5195-.3882,1.0918-.502,1.7197-.3398l-.3848,1.4932c-.2871-.0742-.5527-.0288-.7988.1353-.2451.1646-.4131.4224-.5039.7744-.085.3276-.0781.6147.0195.8613.0986.2456.2744.4014.5293.4673.2295.0591.4326.0078.6094-.1514.1768-.1597.4043-.5166.6855-1.0693.2793-.5518.5527-.9727.8164-1.2607.2646-.2881.542-.4805.833-.5781.293-.0977.6172-.0996.9727-.0083.5986.1543,1.0195.5269,1.2627,1.1187s.2607,1.2881.0537,2.0918c-.1406.5449-.3633,1.0059-.6709,1.3809-.3057.375-.6621.6372-1.0684.7861-.4053.1494-.8066.1729-1.2031.0703l.374-1.4507c.3574.0703.6631.0068.916-.1899.2539-.1963.4336-.498.5391-.9033.1006-.3936.1025-.7124.0059-.9551-.0967-.2432-.2656-.397-.5078-.459Z"/><path class="cls-8" d="m42.7296,148.2353c.4033.5718.501,1.2612.293,2.0684-.1865.7212-.5371,1.2134-1.0557,1.4751-.5176.2622-1.1768.2905-1.9746.0845l-4.3096-1.1104.3857-1.4941,4.291,1.1055c.8438.2178,1.3555-.0234,1.5361-.7241.1875-.7256.0537-1.2827-.4014-1.6704l-4.7764-1.2314.3848-1.4932,6.6514,1.7139-.3623,1.4082-.6621-.1318Z"/><path class="cls-8" d="m44.5557,143.8486l-.3848,1.4941-9.4414-2.4336.3848-1.4941,9.4414,2.4336Z"/><path class="cls-8" d="m37.1895,138.2206l1.6162.416.3027-1.1738,1.1064.2852-.3027,1.1738,3.7129.957c.2539.0654.4502.0635.5889-.0083s.2422-.2358.3086-.4937c.0439-.1729.0674-.3516.0723-.5391l1.1553.2979c.0068.3643-.0312.7046-.1123,1.02-.2959,1.1475-1.0762,1.5576-2.3418,1.2314l-3.7686-.9712-.2822,1.0938-1.1064-.2852.2822-1.0938-1.6162-.417.3848-1.4932Z"/><path class="cls-8" d="m45.2071,133.8437c-.2666-.0693-.4971-.0112-.6934.1719-.1963.1826-.4131.5146-.6494.9961-.2383.4805-.4824.8696-.7354,1.1675-.5527.6528-1.1699.8911-1.8545.7148-.5742-.1479-.9912-.5132-1.252-1.0962-.2598-.583-.2949-1.2471-.1025-1.9932.2051-.7949.5674-1.3867,1.0879-1.7744.5186-.3887,1.0908-.502,1.7197-.3398l-.3857,1.4932c-.2871-.0742-.5527-.0288-.7988.1353-.2441.1636-.4131.4219-.5039.7744-.084.3276-.0781.6147.0195.8608.0996.2461.2744.4014.5293.4668.2295.0596.4326.0088.6104-.1504.1758-.1602.4033-.5166.6846-1.0693.2803-.5527.5527-.9727.8164-1.2612.2646-.2876.543-.4805.833-.5776.293-.0977.6172-.1006.9727-.0088.5996.1543,1.0195.5273,1.2627,1.1182.2432.5918.2607,1.2891.0537,2.0923-.1406.5449-.3633,1.0054-.6709,1.3804-.3057.376-.6621.6382-1.0674.7871-.4053.1494-.8066.1724-1.2031.0698l.373-1.4507c.3574.0703.6631.0068.917-.1895.2539-.1973.4336-.498.5381-.9043.1016-.3926.1035-.7114.0068-.9551-.0967-.2432-.2656-.396-.5078-.458Z"/><path class="cls-8" d="m43.9561,204.2509c.0957-.373.0664-.7109-.0869-1.0127s-.3887-.502-.7031-.6006l.3623-1.4082c.4102.123.7627.3525,1.0586.6855.2959.335.4961.7363.5967,1.2041.1035.4678.0928.9404-.0303,1.4209-.2402.9297-.7305,1.5898-1.4746,1.9795-.7422.3896-1.6445.4482-2.7051.1748l-.1543-.04c-1.0117-.2607-1.7529-.7402-2.2227-1.4385-.4678-.6973-.582-1.5137-.3418-2.4482.2041-.791.6006-1.375,1.1895-1.7549.5898-.3789,1.2627-.4834,2.0186-.3154l-.3623,1.4082c-.3857-.082-.7334-.0332-1.042.1475s-.5117.459-.6084.8359c-.125.4844-.0449.9023.2373,1.2549s.7803.6221,1.4922.8105l.2393.0615c.7207.1855,1.293.1953,1.7148.0254.4219-.168.6953-.499.8223-.9902Z"/><path class="cls-8" d="m42.5596,200.0751c-.6504-.167-1.2041-.4473-1.6611-.8408-.4551-.3926-.7637-.8584-.9238-1.3984-.1602-.5391-.1621-1.1123-.0049-1.7188.2305-.8975.707-1.5518,1.4297-1.9609.7207-.4116,1.5664-.5156,2.5312-.3145l.3525.084c.6553.1689,1.21.4458,1.6602.8311.4521.3853.7588.8486.9209,1.3906.1611.542.1631,1.1211.0049,1.7344-.2422.9395-.748,1.6094-1.5186,2.0127-.7695.4014-1.6758.4688-2.7168.2002l-.0742-.0195Zm.5146-1.46c.6846.1768,1.2568.1729,1.7168-.0098s.7559-.5264.8857-1.0303.0332-.9473-.2871-1.3291-.8613-.6709-1.6191-.8667c-.6719-.1733-1.2422-.166-1.71.022-.4678.187-.7656.5288-.8936,1.0249-.125.4873-.0312.9243.2822,1.311.3125.3867.8545.6797,1.625.8779Z"/><path class="cls-8" d="m41.5782,190.3828l.7061.1367c-.4248-.6074-.5322-1.3174-.3232-2.1289.2295-.8896.7256-1.4102,1.4912-1.5625-.5566-.6592-.7207-1.4268-.4951-2.3037.1895-.7334.5332-1.2271,1.0303-1.4814.499-.2539,1.1445-.2832,1.9365-.0874l4.3711,1.1265-.3857,1.4937-4.3262-1.1152c-.4219-.1089-.7568-.0962-1,.0366-.2441.1343-.4219.4146-.5312.8403-.0879.3398-.0674.6411.0596.9038.127.2617.3262.4741.5996.6357l4.5615,1.1699-.3848,1.4937-4.377-1.1279c-.7871-.1821-1.2822.1172-1.4824.8955-.1543.5981-.0195,1.0854.4033,1.4614l4.8193,1.2417-.3848,1.4937-6.6504-1.7139.3623-1.4082Z"/><path class="cls-8" d="m44.4014,179.4296l.7051.1367c-.4238-.6084-.5312-1.3174-.3223-2.1289.2285-.8896.7256-1.4102,1.4902-1.563-.5557-.6587-.7197-1.4263-.4941-2.3032.1895-.7334.5332-1.2275,1.0303-1.4824.499-.2534,1.1445-.2822,1.9365-.0869l4.3711,1.1265-.3848,1.4937-4.3281-1.1152c-.4219-.1084-.7559-.0967-1,.0371-.2432.1338-.4209.4141-.5303.8398-.0879.3403-.0674.6416.0596.9043.127.2612.3262.4736.5996.6357l4.5615,1.1694-.3848,1.4937-4.377-1.1279c-.7871-.1816-1.2822.1172-1.4824.896-.1543.5981-.0195,1.085.4033,1.4604l4.8193,1.2422-.3848,1.4937-6.6504-1.7144.3623-1.4072Z"/><path class="cls-8" d="m53.9005,167.3974c.4033.5718.501,1.2612.293,2.0684-.1865.7212-.5381,1.2129-1.0566,1.4746-.5166.2627-1.1748.291-1.9736.085l-4.3086-1.1104.3848-1.4941,4.29,1.106c.8447.2178,1.3564-.0239,1.5371-.7251.1875-.7256.0527-1.2822-.4014-1.6699l-4.7764-1.2314.3848-1.4932,6.6504,1.7139-.3623,1.4077-.6611-.1313Z"/><path class="cls-8" d="m49.0225,161.4999l.7803.1553c-.4678-.6455-.5986-1.3672-.3926-2.167.3564-1.3848,1.3311-1.8848,2.9229-1.501l4.3955,1.1328-.3848,1.4937-4.3086-1.1104c-.4229-.1089-.7578-.0981-1.0088.0317-.25.1299-.4277.4019-.5352.8159-.1543.6021.0029,1.1216.4707,1.5571l4.7334,1.2197-.3848,1.4937-6.6504-1.7144.3623-1.4072Z"/><path class="cls-8" d="m48.7422,155.4365c-.2285-.0596-.4014-.1812-.5137-.3657-.1143-.1846-.1367-.4121-.0664-.6826.0693-.2705.1992-.46.3887-.5684.1885-.1084.3994-.1333.6279-.0737.2266.0581.3945.1797.5059.3662.1113.1855.1318.4141.0625.6846-.0703.2705-.1982.459-.3848.5664-.1875.1064-.3936.1313-.6201.0732Zm8.7881.5732l-.3848,1.4937-6.6504-1.7144.3848-1.4932,6.6504,1.7139Z"/><path class="cls-8" d="m57.584,151.3759c.0967-.373.0664-.7104-.0869-1.0117-.1533-.3022-.3887-.502-.7031-.6016l.3623-1.4072c.4102.123.7627.3521,1.0586.6855.2959.334.4961.7354.5977,1.2031.1025.4678.0928.9414-.0312,1.4209-.2393.9302-.7305,1.5898-1.4746,1.98-.7422.3901-1.6445.4478-2.7051.1743l-.1543-.04c-1.0117-.2607-1.7529-.7402-2.2227-1.4375-.4678-.6973-.582-1.5137-.3418-2.4482.2041-.791.6006-1.375,1.1904-1.7549.5889-.3789,1.2617-.4844,2.0176-.3154l-.3623,1.4072c-.3857-.0815-.7334-.0322-1.042.1484-.3076.1802-.5107.459-.6084.8359-.124.4834-.0449.9014.2373,1.2539.2832.353.7812.623,1.4922.8105l.2393.062c.7207.186,1.293.1948,1.7158.0254.4209-.1685.6943-.4985.8213-.9907Z"/><path class="cls-8" d="m60.6719,143.8207c-.1436.0327-.3662.0371-.665.0122.373.6025.4707,1.249.2939,1.937-.1729.6685-.5039,1.1636-.9932,1.4878-.4902.3242-1.0156.4141-1.5781.269-.708-.1826-1.1836-.5864-1.4277-1.2104-.2422-.624-.2383-1.4268.0146-2.4053l.2354-.916-.4355-.1128c-.3457-.0884-.6455-.063-.9023.0762-.2559.1392-.4346.4053-.5361.7988-.0869.3398-.0752.6401.0391.9019.1133.2603.3027.4248.5645.4927l-.3857,1.4937c-.3633-.0942-.6738-.3027-.9287-.627-.2559-.3228-.4189-.7158-.4932-1.1787-.0732-.4624-.043-.9502.0889-1.4619.2002-.7783.5557-1.3491,1.0674-1.7109.5107-.3623,1.1211-.4585,1.834-.2881l2.999.7734c.5986.1543,1.0967.1934,1.498.1172l.1035.0269-.3926,1.5244Zm-1.499,1.3638c.0762-.2949.0762-.5908,0-.8882-.0771-.2974-.2188-.5425-.4258-.7358l-1.2539-.3232-.208.8052c-.1426.5532-.1543.9941-.0322,1.3228.1191.3276.3555.5371.709.6284.2861.0737.5391.0376.7598-.1094.2188-.147.3682-.3799.4512-.6997Z"/><path class="cls-8" d="m53.6192,136.9814l1.6162.417.3027-1.1738,1.1055.2852-.3018,1.1738,3.7119.957c.2549.0654.4512.0625.5898-.0093.1377-.0713.2402-.2358.3066-.4941.0449-.1719.0693-.3516.0723-.5386l1.1562.2979c.0059.3643-.0303.7046-.1113,1.02-.2959,1.1475-1.0781,1.5581-2.3438,1.2319l-3.7676-.9717-.2812,1.0947-1.1064-.2852.2812-1.0947-1.6162-.416.3857-1.4941Z"/><path class="cls-8" d="m54.1036,134.6357c-.2285-.0596-.4014-.1812-.5137-.3652-.1143-.1851-.1367-.4126-.0674-.6831.0703-.27.2002-.4595.3896-.5684.1885-.1084.3984-.1333.627-.0737.2266.0581.3955.1797.5068.3662s.1318.4146.0625.6846c-.0703.2705-.1982.459-.3848.5664-.1875.1064-.3936.1313-.6201.0732Zm8.7881.5732l-.3848,1.4937-6.6504-1.7144.3848-1.4932,6.6504,1.7139Z"/><path class="cls-8" d="m59.8506,132.9897c-.6504-.1675-1.2041-.4478-1.6611-.8413-.4541-.3921-.7637-.8584-.9229-1.3984-.1611-.5391-.1631-1.1123-.0059-1.7188.2305-.8975.707-1.5513,1.4297-1.9609.7207-.4111,1.5664-.5156,2.5312-.3145l.3525.084c.6553.1689,1.21.4463,1.6611.8311.4512.3853.7578.8486.9199,1.3906.1611.542.1631,1.1206.0049,1.7354-.2422.9385-.748,1.6094-1.5186,2.0117-.7695.4014-1.6758.4688-2.7168.2002l-.0742-.019Zm.5146-1.4604c.6846.1768,1.2568.1738,1.7168-.0093s.7559-.5269.8857-1.0308.0332-.9468-.2871-1.3291c-.3203-.3818-.8604-.6709-1.6191-.8662-.6709-.1729-1.2422-.1665-1.71.0215-.4678.187-.7646.5288-.8936,1.0249-.125.4873-.0312.9243.2822,1.3115.3125.3867.8545.6792,1.625.8774Z"/><path class="cls-8" d="m58.8643,123.3163l.7803.1543c-.4678-.6445-.5986-1.3662-.3926-2.166.3564-1.3848,1.3311-1.8848,2.9229-1.501l4.3955,1.1328-.3848,1.4937-4.3086-1.1104c-.4229-.1089-.7578-.0986-1.0088.0317-.25.1299-.4277.4019-.5352.8154-.1553.6025.0029,1.1221.4707,1.5571l4.7334,1.2197-.3848,1.4937-6.6504-1.7139.3623-1.4072Z"/><path class="cls-8" d="m62.8526,197.8622c-.1426.0332-.3643.0371-.6641.0127.373.6025.4707,1.249.293,1.9375-.1719.668-.5029,1.1631-.9922,1.4873-.4912.3242-1.0156.4131-1.5781.2686-.707-.1826-1.1836-.5859-1.4277-1.21-.2432-.625-.2383-1.4258.0137-2.4062l.2363-.9155-.4365-.1128c-.3438-.0889-.6445-.0625-.9004.0762-.2568.1396-.4365.4062-.5371.7988-.0879.3398-.0762.6416.0391.9014.1143.2617.3027.4258.5645.4932l-.3848,1.4941c-.3652-.0938-.6748-.3027-.9307-.626-.2549-.3242-.4189-.7168-.4922-1.1797-.0732-.4619-.0439-.9492.0879-1.4619.2012-.7788.5576-1.3491,1.0674-1.7109.5107-.3623,1.1221-.458,1.834-.2881l3,.7734c.5986.1543,1.0967.1929,1.498.1172l.1035.0264-.3936,1.5244Zm-1.499,1.3643c.0762-.2949.0771-.5908.001-.8887-.0771-.2969-.2188-.542-.4268-.7354l-1.2539-.3242-.208.8066c-.1426.5527-.1523.9941-.0322,1.3223.1201.3271.3574.5371.71.6279.2861.0742.54.0381.7588-.1094.2188-.1455.3691-.3799.4512-.6992Z"/><path class="cls-8" d="m57.2911,191.9257l.7793.1553c-.4678-.6455-.5986-1.3672-.3926-2.1665.3574-1.3848,1.333-1.8853,2.9238-1.5015l4.3945,1.1328-.3848,1.4941-4.3076-1.1104c-.4229-.1094-.7588-.0986-1.0088.0317-.249.1294-.4287.4019-.5352.8159-.1553.6016.002,1.1211.4717,1.5566l4.7324,1.2197-.3857,1.4941-6.6504-1.7144.3633-1.4077Z"/><path class="cls-8" d="m61.9424,187.4345c-1.0244-.2637-1.7861-.7139-2.2842-1.3486-.498-.6357-.6445-1.353-.4385-2.1519.1816-.7051.5742-1.2114,1.1777-1.519l-3.4053-.8779.3848-1.4932,9.4414,2.4336-.3486,1.3525-.707-.104c.4258.5864.542,1.2524.3496,1.9976-.2002.7793-.6758,1.3281-1.4258,1.6479-.752.3198-1.667.3408-2.7441.063Zm.5137-1.46c.6758.1738,1.2383.1802,1.6836.0171.4463-.1621.7305-.4834.8545-.9629.1572-.6104,0-1.1274-.4727-1.5508l-2.8389-.7319c-.6045.1377-.9854.5117-1.1426,1.1221-.124.4834-.0283.9053.2871,1.2666s.8584.6406,1.6289.8398Z"/><path class="cls-8" d="m64.5821,177.1943c-1.0244-.2646-1.7861-.7144-2.2842-1.3496-.499-.6348-.6445-1.3521-.4395-2.1514.1826-.7051.5752-1.2109,1.1777-1.5186l-3.4043-.8779.3848-1.4941,9.4414,2.4336-.3486,1.3525-.708-.1035c.4258.5859.543,1.252.3506,1.998-.2002.7783-.6768,1.3271-1.4268,1.6479-.752.3198-1.666.3403-2.7432.063Zm.5137-1.4609c.6758.1748,1.2373.1807,1.6836.0181s.7305-.4834.8545-.9629c.1572-.6104,0-1.1274-.4727-1.5513l-2.8398-.7314c-.6035.1372-.9844.5107-1.1416,1.1221-.124.4834-.0283.9053.2871,1.2666.3154.3608.8584.6406,1.6289.8389Z"/><path class="cls-8" d="m70.8839,166.705c-.1426.0322-.3652.0371-.665.0117.374.6025.4707,1.249.2939,1.9375-.1729.668-.5029,1.1631-.9932,1.4878-.4902.3237-1.0156.4136-1.5771.2686-.708-.1821-1.1836-.5864-1.4277-1.2104s-.2393-1.4263.0137-2.4053l.2363-.916-.4375-.1123c-.3438-.0889-.6436-.0635-.9004.0757s-.4355.4058-.5371.7993c-.0879.3398-.0752.6401.0391.9014.1143.2607.3037.4253.5654.4927l-.3857,1.4937c-.3652-.0938-.6748-.3027-.9297-.6265s-.4189-.7168-.4932-1.1792c-.0732-.4619-.043-.9497.0889-1.4614.2012-.7788.5566-1.3496,1.0664-1.7114.5117-.3623,1.1221-.458,1.835-.2876l3,.7729c.5986.1543,1.0967.1934,1.4971.1172l.1035.0273-.3926,1.5244Zm-1.499,1.3633c.0752-.2949.0771-.5908.001-.8882-.0781-.2974-.2188-.5425-.4277-.7358l-1.2539-.3232-.207.8052c-.1426.5532-.1533.9941-.0322,1.3228.1201.3281.3564.5376.709.6289.2861.0732.54.0371.7598-.1099.2188-.1465.3682-.3804.4512-.6997Z"/><path class="cls-8" d="m63.8311,159.8652l1.6152.417.3027-1.1743,1.1064.2852-.3018,1.1743,3.7129.957c.2539.0654.4502.0625.5879-.0093.1396-.0708.2422-.2358.3086-.4937.0449-.1729.0684-.3516.0723-.5391l1.1553.2979c.0068.3643-.0303.7051-.1113,1.0205-.2959,1.1475-1.0771,1.5576-2.3428,1.2314l-3.7686-.9712-.2822,1.0942-1.1055-.2852.2812-1.0942-1.6162-.4165.3857-1.4941Z"/><path class="cls-8" d="m73.7178,155.7079c-.1426.0332-.3643.0371-.6641.0122.373.603.4707,1.2485.293,1.937-.1719.6689-.5029,1.1641-.9922,1.4883-.4912.3237-1.0166.4131-1.5781.2686-.708-.1826-1.1836-.5864-1.4277-1.2104-.2432-.624-.2383-1.4263.0137-2.4053l.2363-.916-.4365-.1128c-.3438-.0889-.6445-.0635-.9014.0762-.2559.1392-.4355.4053-.5371.7988-.0869.3398-.0752.6406.04.9014.1143.2607.3027.4258.5645.4932l-.3848,1.4937c-.3652-.0942-.6748-.3027-.9307-.6265-.2549-.3232-.4189-.7163-.4922-1.1787-.0742-.4629-.0439-.9502.0879-1.4619.2012-.7788.5576-1.3496,1.0674-1.7114.5107-.3618,1.1221-.4585,1.834-.2876l3,.7734c.5986.1543,1.0967.1929,1.4971.1172l.1035.0264-.3926,1.5244Zm-1.499,1.3643c.0762-.2949.0771-.5913.001-.8887-.0781-.2969-.2188-.5425-.4268-.7358l-1.2539-.3232-.208.8052c-.1426.5532-.1533.9941-.0322,1.3228.1201.3276.3574.5376.71.6284.2861.0742.54.0381.7588-.1094.2188-.1465.3691-.3799.4512-.6992Z"/><path class="cls-8" d="m75.6446,145.539c.4033.5718.501,1.2617.292,2.0684-.1855.7217-.5371,1.2129-1.0547,1.4746-.5176.2627-1.1768.2905-1.9746.085l-4.3096-1.1108.3857-1.4937,4.29,1.1055c.8447.2178,1.3564-.0234,1.5371-.7241.1865-.7256.0537-1.2827-.4014-1.6704l-4.7764-1.231.3848-1.4937,6.6504,1.7139-.3623,1.4082-.6611-.1318Z"/><path class="cls-8" d="m76.2139,138.5478c-.2666-.0688-.4961-.0112-.6924.1719-.1963.1836-.4131.5151-.6494.9961-.2383.4805-.4824.8701-.7354,1.168-.5527.6523-1.1699.8906-1.8545.7144-.5742-.1479-.9922-.5132-1.252-1.0957-.2598-.5835-.2949-1.2476-.1025-1.9932.2041-.7949.5674-1.3872,1.0859-1.7749.5205-.3882,1.0928-.502,1.7207-.3398l-.3848,1.4932c-.2871-.0737-.5527-.0288-.7988.1353-.2451.1646-.4131.4224-.5039.7749-.085.3271-.0781.6143.0195.8604.0986.2461.2744.4023.5293.4678.2295.0591.4326.0083.6094-.1514s.4043-.5166.6846-1.0688c.2803-.5527.5537-.9731.8174-1.2612.2646-.2881.541-.481.833-.5781.293-.0977.6172-.0996.9727-.0083.5986.1543,1.0195.5269,1.2627,1.1187s.2607,1.2881.0537,2.0918c-.1406.5449-.3633,1.0049-.6709,1.3809-.3057.375-.6621.6372-1.0684.7861-.4053.1494-.8066.1724-1.2031.0703l.374-1.4512c.3564.0708.6631.0078.916-.1895.2539-.1963.4336-.498.5391-.9033.1006-.3936.1025-.7119.0059-.9551-.0967-.2441-.2656-.3965-.5078-.459Z"/><path class="cls-8" d="m79.6124,133.3476c-.2441.9463-.7393,1.6367-1.4873,2.0708-.7471.4341-1.6172.5239-2.6084.2681l-.1855-.0479c-.6641-.1709-1.2236-.4517-1.6797-.8428-.457-.3906-.7705-.855-.9424-1.3931-.1719-.5376-.1846-1.0913-.0371-1.6611.2334-.9053.7021-1.5308,1.4082-1.8755.7041-.3452,1.585-.3813,2.6426-.1089l.6025.1553-1.1201,4.3457c.5615.0967,1.043.0254,1.4453-.2144.4033-.2393.666-.6025.792-1.0903.1768-.6841.0439-1.313-.3984-1.8857l.9756-.6069c.3291.3682.5459.8037.6494,1.3047.1055.501.0859,1.0283-.0566,1.582Zm-5.7441-1.291c-.1055.4102-.0469.7773.1758,1.104.2217.3252.5791.5898,1.0742.7915l.7334-2.8467-.1113-.0283c-.5088-.0962-.9199-.0601-1.2363.1074-.3164.168-.5283.458-.6357.8721Z"/><path class="cls-8" d="m237.7696,82.0986l-4.0137-4.7451.8096-.6846,4.5518.1826c.665.0195,1.1846-.0068,1.5605-.0771.375-.0713.6904-.2139.9453-.4307.3359-.2832.5273-.6074.5742-.9707.0469-.3652-.0654-.707-.3359-1.0273-.3223-.3809-.6885-.5781-1.0986-.5908s-.8164.1504-1.2207.4922l-.9961-1.1777c.4297-.3633.8984-.5928,1.4082-.6885s1.0137-.042,1.5107.1602c.499.2021.9482.54,1.3506,1.0156.5791.6846.8643,1.3711.8555,2.0566-.0098.6875-.3184,1.2881-.9258,1.8018-.3516.2979-.8047.5107-1.3594.6396-.5547.127-1.2686.1729-2.1406.1357l-3.3066-.1631,2.7715,3.2754-.9404.7959Z"/><path class="cls-8" d="m240.4532,82.7548c.1865.2197.2666.4414.2441.667-.0234.2246-.1289.416-.3174.5752-.1836.1553-.3867.2236-.6084.208-.2227-.0176-.4268-.1357-.6123-.3555-.1777-.21-.2578-.4277-.2432-.6504.0156-.2246.1172-.416.3037-.5742.1885-.1582.3945-.2305.6211-.2168.2246.0146.4297.1309.6123.3467Z"/><path class="cls-8" d="m243.1241,88.4277l7.0557-5.9688,1.7627,2.083c.5273.624.8574,1.2949.9873,2.0127.1309.7188.0527,1.4258-.2334,2.1221-.2861.6973-.7598,1.3242-1.418,1.8818l-.3535.2988c-.6699.5664-1.3701.9297-2.1016,1.0928-.7344.1631-1.4453.1133-2.1377-.1465-.6904-.2607-1.3057-.709-1.8447-1.3457l-1.7168-2.0303Zm7.1035-3.9062l-5.0879,4.3047.6768.7988c.5439.6426,1.1621.9658,1.8555.9707.6934.0039,1.4189-.3096,2.1768-.9404l.3926-.3311c.7666-.6484,1.2109-1.3096,1.333-1.9844.1221-.6738-.085-1.3281-.6201-1.9609l-.7266-.8574Z"/><path class="cls-8" d="m251.1631,97.9316c.0566-.1367.1816-.3203.375-.5498-.709-.0439-1.293-.3379-1.752-.8809-.4453-.5264-.6582-1.083-.6387-1.6699.0195-.5879.25-1.0674.6924-1.4424.5586-.4727,1.1631-.6279,1.8125-.4658.6504.1621,1.3018.6299,1.9551,1.4023l.6104.7217.3447-.291c.2715-.2305.4248-.4893.46-.7793.0342-.29-.0801-.5898-.3428-.8994-.2266-.2686-.4785-.4326-.7578-.4893-.2783-.0586-.5225,0-.7295.1758l-.9961-1.1777c.2891-.2441.6367-.376,1.0488-.3965.4121-.0215.8281.0723,1.248.2793.4189.207.7988.5137,1.1406.918.5195.6133.7793,1.2324.7793,1.8594,0,.626-.2734,1.1797-.8242,1.6621l-2.3652,2.001c-.4727.3994-.792.7842-.9619,1.1543l-.082.0693-1.0166-1.2012Zm-.2461-2.0117c.1973.2324.4375.4033.7246.5137.2871.1094.5684.1348.8467.0762l.9893-.8359-.5371-.6348c-.3691-.4355-.7227-.6992-1.0605-.791-.3369-.0918-.6445-.0195-.9238.2158-.2246.1914-.3418.4189-.3496.6826-.0068.2637.0977.5215.3105.7734Z"/><path class="cls-8" d="m260.8214,96.1288l-1.2744,1.0781.7832.9258-.8721.7383-.7832-.9258-2.9277,2.4766c-.2002.1689-.3115.3311-.333.4863-.0225.1533.0537.332.2256.5361.1143.1357.2461.2588.3965.3701l-.9102.7715c-.3008-.2051-.5586-.4326-.7676-.6816-.7656-.9043-.6484-1.7793.3486-2.623l2.9717-2.5137-.7305-.8623.873-.7373.7295.8623,1.2744-1.0781.9961,1.1768Z"/><path class="cls-8" d="m258.4971,106.6015c.0566-.1367.1816-.3203.375-.5498-.709-.0439-1.292-.3379-1.751-.8809-.4463-.5264-.6582-1.083-.6396-1.6699.0195-.5879.25-1.0674.6924-1.4424.5586-.4727,1.1631-.6279,1.8135-.4658.6494.1621,1.3008.6299,1.9551,1.4014l.6104.7227.3447-.291c.2715-.2305.4238-.4893.459-.7793.0342-.29-.0801-.5898-.3418-.8994-.2275-.2686-.4795-.4326-.7578-.4893-.2793-.0586-.5234,0-.7295.1758l-.9961-1.1777c.2881-.2441.6367-.376,1.0479-.3965.4121-.0215.8281.0723,1.248.2793.4189.207.7998.5137,1.1406.918.5195.6133.7793,1.2324.7793,1.8594,0,.626-.2734,1.1797-.8242,1.6621l-2.3652,2.001c-.4727.3994-.792.7842-.9619,1.1543l-.082.0693-1.0166-1.2012Zm-.2461-2.0117c.1973.2324.4375.4033.7246.5137.2871.1094.5684.1348.8477.0762l.9883-.8359-.5371-.6348c-.3691-.4355-.7227-.6992-1.0605-.791-.3369-.0918-.6445-.0195-.9229.2148-.2256.1914-.3428.4199-.3506.6836-.0068.2637.0977.5215.3105.7734Z"/><path class="cls-8" d="m264.337,113.7001c-.6318-.7461-.9092-1.5498-.8301-2.4111.0771-.8613.5068-1.623,1.2891-2.2832l.1455-.125c.5234-.4414,1.0762-.7363,1.6592-.8828s1.1426-.1348,1.6816.0361c.5371.1719.9961.4814,1.377.9307.6035.7139.8438,1.458.7158,2.2324-.125.7754-.6055,1.5156-1.4385,2.2207l-.4756.4014-2.8984-3.4268c-.4033.4023-.623.8359-.6602,1.3027-.0381.4668.1064.8926.4316,1.2773.4561.5391,1.0459.7949,1.7686.7656l-.0684,1.1465c-.4902.0547-.9707-.0195-1.4395-.2246-.4697-.2031-.8896-.5234-1.2578-.96Zm4.373-3.9414c-.2734-.3232-.6064-.4873-1.002-.4951-.3936-.0068-.8164.1318-1.2656.4189l1.8975,2.2441.0869-.0732c.373-.3604.582-.7168.6279-1.0723s-.0684-.6963-.3447-1.0225Z"/><path class="cls-8" d="m272.0967,115.541l2.5703-.4609,1.1064,1.3086-3.9404.5811-1.2578,3.9082-1.0996-1.2988.9082-2.5635-2.6748.4746-1.1064-1.3086,4.0625-.5928,1.2305-3.7842,1.0977,1.2988-.8965,2.4375Z"/><path class="cls-8" d="m278.9737,117.5878l-1.2734,1.0781.7832.9258-.873.7383-.7832-.9258-2.9258,2.4766c-.2012.1689-.3125.3311-.334.4863-.0215.1533.0527.332.2246.5361.1152.1357.248.2588.3984.3701l-.9121.7715c-.3008-.2051-.5566-.4326-.7676-.6816-.7656-.9043-.6484-1.7793.3496-2.623l2.9707-2.5137-.7295-.8623.8721-.7373.7305.8623,1.2734-1.0781.9961,1.1768Z"/><path class="cls-8" d="m280.4893,124.1464c-.1045-.1777-.2266-.3477-.3662-.5127-.4561-.54-.9697-.7275-1.543-.5654l-3.5859,3.0332-.9961-1.1777,5.2432-4.4355.9512,1.125-.5625.5254c.6973-.1016,1.2578.0996,1.6836.6035.1426.168.2383.3262.2852.4746l-1.1094.9297Z"/><path class="cls-8" d="m279.4796,131.4042c.0557-.1367.1807-.3203.374-.5498-.708-.0439-1.292-.3379-1.751-.8809-.4453-.5264-.6582-1.083-.6396-1.6699.0195-.5869.25-1.0674.6924-1.4424.5586-.4727,1.1641-.6279,1.8135-.4658.6494.1631,1.3018.6299,1.9551,1.4023l.6104.7217.3447-.291c.2715-.2295.4238-.4893.459-.7793.0342-.29-.0791-.5898-.3418-.8994-.2275-.2686-.4795-.4326-.7578-.4893-.2793-.0586-.5225,0-.7295.1758l-.9961-1.1777c.2881-.2441.6367-.375,1.0488-.3965s.8271.0723,1.2471.2793c.4189.207.7998.5137,1.1416.918.5195.6133.7793,1.2334.7793,1.8594,0,.627-.2744,1.1797-.8252,1.6621l-2.3652,2.001c-.4717.3994-.792.7842-.9619,1.1543l-.082.0693-1.0156-1.2012Zm-.2461-2.0117c.1963.2324.4375.4043.7246.5137s.5684.1348.8467.0771l.9893-.8369-.5371-.6348c-.3691-.4355-.7227-.6992-1.0605-.791s-.6445-.0195-.9238.2158c-.2246.1914-.3428.4189-.3496.6826-.0078.2637.0977.5215.3105.7734Z"/><path class="cls-8" d="m284.0362,135.081c.249.2939.541.4658.877.5146.334.0488.6328-.0273.8965-.2266l.9395,1.1094c-.3379.2637-.7285.4189-1.1719.4678-.4434.0479-.8867-.0205-1.3281-.208-.4414-.1865-.8203-.4688-1.1406-.8477-.6201-.7324-.875-1.5156-.7627-2.3477.1104-.8301.585-1.5996,1.4209-2.3076l.1221-.1025c.7979-.6758,1.6162-1.002,2.458-.9824.8398.0215,1.5723.3994,2.1953,1.1367.5273.623.7754,1.2852.7441,1.9844-.0312.7002-.334,1.3105-.9092,1.8301l-.9385-1.1104c.2891-.2666.4492-.5791.4805-.9355s-.0781-.6826-.3301-.9795c-.3223-.3818-.709-.5586-1.1602-.5312-.4521.0273-.959.2764-1.5244.748l-.1885.1602c-.5693.4814-.9062.9434-1.0117,1.3848-.1074.4414.0039.8555.332,1.2432Z"/><path class="cls-8" d="m293.5323,134.7968l-1.2744,1.0781.7832.9258-.8721.7383-.7832-.9258-2.9277,2.4766c-.2002.1689-.3115.3311-.333.4863-.0225.1533.0537.332.2256.5361.1143.1357.2461.2588.3965.3701l-.9102.7705c-.3008-.2041-.5586-.4316-.7676-.6807-.7656-.9043-.6484-1.7793.3486-2.623l2.9717-2.5137-.7305-.8623.873-.7373.7295.8613,1.2744-1.0781.9961,1.1777Z"/><path class="cls-8" d="m289.6172,143.3886l-.9961-1.1777,5.2432-4.4355.9961,1.1777-5.2432,4.4355Zm5.5479-6.8379c.1807-.1533.3799-.2227.5957-.21.2168.0146.415.1279.5957.3408.1797.2129.2598.4287.2393.6455-.0215.2178-.1221.4033-.3027.5557-.1787.1504-.376.2168-.5908.2012-.2168-.0176-.415-.1328-.5957-.3457-.1797-.2129-.2598-.4268-.2393-.6406.0205-.2148.1201-.3965.2979-.5469Z"/><path class="cls-8" d="m293.1856,142.1904c.5127-.4346,1.0625-.7236,1.6475-.8691.583-.1445,1.1416-.126,1.6748.0537.5322.1816,1.001.5117,1.4053.9902.5996.707.8574,1.4746.7744,2.3008-.0811.8262-.4854,1.5762-1.207,2.248l-.2725.2383c-.5166.4375-1.0635.7285-1.6377.875-.5752.1445-1.1299.127-1.667-.0537-.5352-.1826-1.0098-.5146-1.4189-.999-.626-.7402-.8809-1.54-.7637-2.4014s.5859-1.6396,1.4072-2.333l.0576-.0498Zm.8936,1.2646c-.5391.4561-.8672.9238-.9844,1.4062-.1152.4805-.0059.9199.3301,1.3174s.752.5752,1.25.5342,1.0449-.3145,1.6426-.8203c.5303-.4473.8545-.916.9717-1.4072.1182-.4893.0107-.9307-.3193-1.3213-.3262-.3848-.7363-.5605-1.2344-.5273-.4961.0312-1.0479.3037-1.6562.8184Z"/><path class="cls-8" d="m301.6495,146.9785l-.5771.5469c.7979-.0098,1.4619.3008,1.9951.9316.9238,1.0918.7676,2.1758-.4648,3.2529l-3.4658,2.9316-.9961-1.1777,3.3975-2.874c.332-.2812.5176-.5625.5566-.8408.0371-.2783-.0801-.582-.3564-.9082-.4014-.4756-.917-.6465-1.543-.5166l-3.7314,3.1572-.9961-1.1768,5.2441-4.4355.9375,1.1094Z"/><path class="cls-8" d="m48.5284,259.4765l3.3765-3.25,3.8052,3.1875-.856,1.0215-2.8223-2.3633-1.6133,1.5303c.4854.0869.9341.3018,1.3462.6475.6753.5645,1.019,1.2207,1.0322,1.9648.0132.7461-.2852,1.4834-.8975,2.2148-.603.7188-1.2905,1.1172-2.063,1.1973-.7725.0781-1.5205-.1855-2.2441-.791-.6489-.543-1.0322-1.1777-1.1509-1.9033-.1177-.7256.0571-1.4043.5269-2.0381l1.1436.958c-.2422.3818-.3394.749-.2925,1.1006.0479.3516.2339.6631.5586.9355.3633.3037.7549.4121,1.1753.3213.4199-.0898.8179-.3584,1.1929-.8057.3608-.4316.5352-.8672.5215-1.3057-.0127-.4395-.2153-.8232-.6079-1.1514-.2144-.1797-.4199-.3027-.6172-.3711-.1963-.0684-.4517-.0938-.7651-.0742l-.749-1.0254Z"/><path class="cls-8" d="m52.7896,266.9042c.2207.1855.3394.3896.3545.6152.0156.2266-.0552.4316-.2134.6211-.1543.1836-.3428.2871-.5654.3086-.2217.0215-.4434-.0605-.6641-.2451-.2104-.1768-.3271-.3779-.3496-.6006-.0229-.2227.0444-.4277.2017-.6162.1582-.1885.3491-.2949.5737-.3193.2251-.0244.4453.0547.6626.2363Z"/><path class="cls-8" d="m56.3892,272.039l5.9341-7.0859,2.0923,1.7529c.6265.5244,1.0654,1.1299,1.3159,1.8145.2515.6855.2959,1.3955.1328,2.1309-.1636.7354-.5225,1.4346-1.0767,2.0967l-.2974.3545c-.563.6729-1.1909,1.1494-1.8848,1.4346-.6953.2852-1.4048.3594-2.1313.2207-.7246-.1387-1.4072-.4766-2.0459-1.0117l-2.0391-1.707Zm6.3335-5.0615l-4.2793,5.1094.8032.6729c.6455.541,1.3096.7539,1.9941.6387.6836-.1152,1.3452-.5459,1.9849-1.2969l.3301-.3945c.6445-.7695.9692-1.4961.9746-2.1816.0049-.6855-.3101-1.293-.9463-1.8262l-.8613-.7217Z"/><path class="cls-8" d="m65.9317,280.0312c.0322-.1445.124-.3457.2749-.6055-.7046.0781-1.3296-.1123-1.8745-.5684-.5288-.4434-.834-.9551-.916-1.5371-.0811-.582.0645-1.0947.4365-1.5391.4697-.5605,1.0391-.8164,1.7075-.7676s1.3901.3984,2.1655,1.0469l.7246.6074.2896-.3457c.228-.2715.3345-.5537.3193-.8457-.0151-.291-.1787-.5674-.4902-.8281-.269-.2256-.5459-.3438-.8301-.3535-.2847-.0088-.5146.0898-.6885.2979l-1.1821-.9902c.2422-.2891.5635-.4785.9658-.5693.4014-.0918.8271-.0703,1.2759.0625s.876.3691,1.2812.709c.6167.5166.979,1.084,1.0854,1.7002.1069.6162-.0693,1.21-.5298,1.7793l-1.9893,2.374c-.397.4746-.646.9082-.75,1.3018l-.0688.083-1.207-1.0117Zm-.5859-1.9395c.2339.1953.5005.3223.8018.3818.3018.0586.5835.0361.8477-.0684l.8315-.9932-.6372-.5332c-.438-.3672-.8315-.5664-1.1797-.5986s-.6392.0908-.873.3701c-.1899.2266-.2661.4707-.228.7324.0376.2607.1841.4961.437.709Z"/><path class="cls-8" d="m75.1407,276.6093l-1.0718,1.2793.9297.7783-.7334.876-.9297-.7783-2.4619,2.9385c-.1685.2021-.251.3809-.2451.5361.0044.1553.1089.3193.313.4912.1362.1133.2881.2129.4556.2969l-.7666.9141c-.332-.1504-.623-.3301-.8726-.5391-.9087-.7617-.9429-1.6436-.104-2.6445l2.499-2.9844-.8657-.7246.7334-.877.8657.7266,1.0718-1.2803,1.1826.9912Z"/><path class="cls-8" d="m74.6373,287.3232c.0322-.1436.124-.3457.2749-.6055-.7046.0771-1.3296-.1123-1.8745-.5693-.5288-.4434-.8335-.9551-.916-1.5361-.0811-.582.0649-1.0947.437-1.54.4697-.5605,1.0391-.8164,1.707-.7676.6685.0488,1.3901.3984,2.1655,1.0488l.7251.6074.2896-.3457c.228-.2734.334-.5547.3188-.8467s-.1787-.5674-.4902-.8281c-.269-.2256-.5454-.3447-.8301-.3535s-.5142.0908-.688.2979l-1.1826-.9902c.2422-.2891.5635-.4785.9658-.5703.4019-.0908.8271-.0693,1.2759.0625.4492.1338.876.3701,1.2817.709.6162.5176.9785,1.084,1.085,1.7012.1069.6162-.0693,1.209-.5298,1.7793l-1.9893,2.374c-.397.4736-.646.9072-.75,1.3018l-.0688.082-1.207-1.0107Zm-.5854-1.9404c.2334.1953.5.3242.8013.3828.3018.0586.5835.0371.8481-.0684l.8315-.9922-.6377-.5352c-.438-.3662-.8311-.5654-1.1797-.5977-.3481-.0332-.6392.0898-.873.3691-.1899.2275-.2661.4717-.228.7324.0376.2617.1841.4971.4375.709Z"/><path class="cls-8" d="m82.5108,293.9179c.0322-.1445.124-.3457.2749-.6055-.7046.0781-1.3296-.1123-1.8745-.5684-.5288-.4434-.8335-.9551-.916-1.5371-.0811-.582.0649-1.0947.437-1.5391.4697-.5605,1.0391-.8174,1.707-.7676.6685.0488,1.3901.3984,2.1655,1.0469l.7251.6074.2896-.3457c.228-.2715.334-.5537.3188-.8457-.0151-.291-.1787-.5674-.4902-.8281-.269-.2256-.5454-.3438-.8301-.3535-.2847-.0088-.5142.0898-.688.2979l-1.1826-.9902c.2422-.2891.5635-.4785.9658-.5693.4019-.0918.8271-.0703,1.2759.0625.4492.1328.876.3691,1.2817.709.6162.5156.9785,1.083,1.085,1.7002.1069.6162-.0693,1.209-.5298,1.7783l-1.9893,2.375c-.397.4746-.646.9072-.75,1.3008l-.0688.083-1.207-1.0107Zm-.5859-1.9404c.2339.1963.5005.3232.8018.3828.3018.0586.5835.0361.8481-.0684l.8315-.9932-.6377-.5332c-.438-.3672-.8311-.5664-1.1797-.5986-.3481-.0322-.6392.0908-.873.3701-.1899.2266-.2661.4707-.228.7324.0376.2607.1841.4961.437.708Z"/><path class="cls-8" d="m90.2637,291.4531l-.4756.6367c.7837-.1445,1.4917.0488,2.124.5781,1.0967.918,1.1289,2.0137.0972,3.2852l-2.9146,3.4795-1.1821-.9902,2.8564-3.4111c.2803-.334.415-.6426.4053-.9238s-.1782-.5596-.5059-.834c-.4771-.3994-1.0132-.4805-1.6079-.2451l-3.1382,3.7471-1.1826-.9902,4.4097-5.2656,1.1143.9336Z"/><path class="cls-8" d="m93.4454,303.0761c.0317-.1445.124-.3457.2749-.6055-.7046.0781-1.3296-.1123-1.8745-.5684-.5293-.4434-.834-.9551-.916-1.5371-.0811-.582.0645-1.0947.4365-1.5391.4697-.5605,1.0391-.8164,1.707-.7676.6685.0488,1.3906.3984,2.1655,1.0469l.7251.6074.2896-.3457c.228-.2715.3345-.5537.3193-.8457-.0151-.291-.1787-.5674-.4902-.8281-.269-.2246-.5459-.3438-.8306-.3535-.2847-.0088-.5142.0908-.688.2988l-1.1826-.9912c.2422-.2891.564-.4775.9658-.5693s.8276-.0703,1.2764.0625.876.3691,1.2812.709c.6167.5166.9785,1.084,1.0854,1.7002.1064.6162-.0693,1.21-.5298,1.7793l-1.9893,2.374c-.397.4746-.6465.9082-.75,1.3018l-.0688.083-1.207-1.0117Zm-.5859-1.9395c.2334.1953.5.3232.8018.3818.3018.0596.5835.0361.8477-.0684l.8315-.9932-.6372-.5332c-.438-.3672-.8315-.5664-1.1797-.5986s-.6392.0908-.873.3701c-.1899.2266-.2661.4707-.228.7324.0376.2607.1841.4961.437.709Z"/><path class="cls-8" d="m96.9493,306.0117l-1.1826-.9912,6.2603-7.4746,1.1826.9912-6.2603,7.4746Z"/><path class="cls-8" d="m101.4962,306.9384l4.062-2.6748,1.2603,1.0557-7.1704,4.3096c-1.0635.6172-1.979.6035-2.748-.041-.1714-.1436-.3369-.332-.4956-.5645l.77-.9189.2119.2021c.2983.25.5684.3838.8105.4023.2412.0166.5132-.0664.8159-.248l.5483-.3096,2.5371-6.7861,1.2749,1.0684-1.877,4.5049Z"/><path class="cls-8" d="m107.2374,312.1943c.1768-.2109.2241-.4443.1426-.6992-.0806-.2568-.2871-.5947-.6191-1.0156-.3315-.4219-.5776-.8096-.7378-1.165-.3511-.7803-.3003-1.4414.1533-1.9834.3809-.4541.8901-.6729,1.5283-.6572.6377.0156,1.2524.2705,1.8428.7656.6294.5264,1.0073,1.1084,1.1343,1.7441.127.6367-.0171,1.2021-.4336,1.6992l-1.1826-.9902c.1904-.2275.2646-.4863.2222-.7793-.043-.292-.2031-.5547-.4819-.7891-.2593-.2168-.5215-.334-.7856-.3516-.2646-.0176-.481.0742-.6494.2764-.1523.1816-.1943.3857-.1265.6143.0684.2285.2925.5879.6704,1.0791.3784.4902.6406.917.7871,1.2803.146.3623.2002.6953.1626,1.001s-.1748.5996-.4106.8818c-.397.4727-.915.6934-1.5532.6582-.6387-.0361-1.2754-.3203-1.9111-.8525-.4316-.3623-.751-.7607-.958-1.2002-.207-.4375-.29-.8721-.2505-1.3027.0405-.4297.1919-.8018.4551-1.1162l1.1484.9619c-.2168.292-.2915.5957-.2231.9092.0688.3135.2632.6055.5845.874.3115.2617.5977.4004.8589.418s.4722-.0693.6328-.2607Z"/><path class="cls-8" d="m109.4893,316.5146l-1.1826-.9902,4.4097-5.2646,1.1826.9902-4.4097,5.2646Zm4.3003-7.6846c.1514-.1816.3359-.2842.5508-.3086.2158-.0225.4312.0557.645.2344.2144.1797.3291.3789.3457.5957.0166.2188-.0522.418-.2036.5996-.1499.1787-.3325.2783-.5479.2988-.2163.0195-.4312-.0596-.6455-.2383-.2139-.1797-.3291-.377-.3452-.5918s.0508-.4111.2007-.5898Z"/><path class="cls-8" d="m114.9258,318.6347c.1768-.2109.2241-.4453.1431-.7002-.0811-.2568-.2876-.5947-.6196-1.0156-.3315-.4209-.5776-.8096-.7378-1.165-.3511-.7793-.3003-1.4414.1533-1.9824.3809-.4551.8901-.6738,1.5283-.6582s1.2524.2715,1.8428.7656c.6294.5273,1.0078,1.1084,1.1343,1.7441.127.6367-.0171,1.2031-.4336,1.6992l-1.1821-.9902c.1904-.2275.2642-.4863.2217-.7793-.0425-.291-.2031-.5547-.4819-.7891-.2593-.2168-.5215-.334-.7856-.3516-.2646-.0166-.481.0752-.6494.2773-.1523.1816-.1938.3857-.126.6143.0684.2275.292.5869.6699,1.0791.3784.4902.6406.916.7871,1.2793.146.3633.2002.6963.1626,1.002-.0376.3047-.1748.5996-.4106.8809-.397.4736-.915.6934-1.5532.6582-.6387-.0352-1.2749-.3203-1.9111-.8516-.4316-.3623-.751-.7617-.958-1.2002s-.29-.8721-.25-1.3027.1919-.8018.4551-1.1162l1.1484.9609c-.2168.293-.2915.5957-.2236.9102.0688.3135.2632.6055.5845.874.3115.2607.5977.3994.8589.417s.4722-.0684.6328-.2598Z"/><path class="cls-8" d="m165.5889,322.1953l1.1152-.2773.2988,1.2012-1.1152.2773.4961,1.9961-1.4961.3721-.4971-1.9961-3.874.9648-.2705-.9004,2.3604-7.0244,1.5459-.3848,1.4365,5.7715Zm-3.8438.9561l2.3467-.584-.9316-3.7451-.0615.2256-1.3535,4.1035Z"/><path class="cls-8" d="m169.127,323.0351c.2793-.0693.5146-.0439.7061.0771.1914.1201.3164.2988.376.5371.0576.2334.0303.4473-.083.6396-.1143.1904-.3105.3223-.5898.3916-.2666.0664-.498.042-.6914-.0703s-.3203-.2881-.3789-.5264c-.0596-.2383-.0332-.4561.0791-.6523.1133-.1953.3066-.3281.582-.3965Z"/><path class="cls-8" d="m175.3956,323.1503l-2.2305-8.9688,2.6484-.6592c.793-.1973,1.5391-.1953,2.2402.0059.7031.1992,1.3027.582,1.8008,1.1484.498.5645.8516,1.2656,1.0605,2.1035l.1113.4492c.2119.8506.2275,1.6396.0498,2.3682-.1787.7305-.5381,1.3467-1.0771,1.8516-.5391.5059-1.2129.8584-2.0225,1.0596l-2.5811.6416Zm-.3604-8.0996l1.6094,6.4678,1.0166-.2529c.8174-.2031,1.3809-.6152,1.6914-1.2344.3096-.6211.3496-1.4092.1201-2.3691l-.124-.499c-.2422-.9736-.6387-1.6641-1.1895-2.0723-.5508-.4072-1.2285-.5117-2.0332-.3115l-1.0908.2715Z"/><path class="cls-8" d="m187.4756,320.1454c-.0977-.1113-.207-.3037-.3281-.5791-.3516.6152-.874,1.0088-1.5635,1.1797-.6699.167-1.2627.1113-1.7803-.1641-.5195-.2773-.8477-.6973-.9883-1.2607-.1758-.709-.0479-1.3193.3848-1.8311.4336-.5117,1.1416-.8887,2.123-1.1328l.917-.2285-.1084-.4375c-.0859-.3447-.252-.5967-.4961-.7559-.2441-.1602-.5635-.1904-.958-.0928-.3408.085-.5986.2393-.7744.4639-.1748.2246-.2295.4688-.1641.7314l-1.498.3721c-.0898-.3652-.0537-.7373.1094-1.1152.1631-.3789.4307-.71.8018-.9941.3721-.2852.8154-.4912,1.3281-.6191.7803-.1934,1.4512-.1523,2.0127.125.5615.2764.9375.7676,1.126,1.4756l.748,3.0059c.1494.5996.3525,1.0566.6104,1.373l.0254.1045-1.5273.3799Zm-1.9131-.6689c.2959-.0742.5557-.2139.7812-.4238.2246-.208.373-.4492.4443-.7246l-.3135-1.2568-.8066.2012c-.5547.1377-.9473.3379-1.1777.6006-.2314.2617-.3037.5693-.2158.9229.0723.2871.2236.4932.458.6162.2324.123.5098.1436.8301.0645Z"/><path class="cls-8" d="m190.1329,310.6874l.4033,1.6191,1.1758-.293.2754,1.1094-1.1758.293.9258,3.7197c.0635.2549.1592.4268.2881.5137.1279.0889.3223.1006.5811.0361.1719-.043.3418-.1074.5078-.1934l.2881,1.1582c-.3174.1797-.6338.3086-.9502.3877-1.1504.2861-1.8828-.2061-2.1982-1.4736l-.9395-3.7764-1.0967.2725-.2754-1.1094,1.0957-.2725-.4023-1.6191,1.4971-.3721Z"/><path class="cls-8" d="m198.4952,317.4033c-.0967-.1104-.2061-.3027-.3271-.5791-.3525.6152-.874,1.0088-1.5645,1.1807-.6689.166-1.2627.1104-1.7803-.165-.5186-.2773-.8477-.6963-.9873-1.2598-.1768-.709-.0479-1.3193.3848-1.832.4326-.5107,1.1406-.8877,2.1221-1.1318l.918-.2285-.1094-.4375c-.0859-.3447-.251-.5977-.4951-.7568-.2451-.1592-.5635-.1904-.958-.0918-.3408.085-.5996.2393-.7744.4629-.1748.2256-.2305.4688-.165.7314l-1.4971.373c-.0908-.3652-.0537-.7373.1084-1.1162.1631-.3779.4307-.709.8027-.9941.3711-.2852.8145-.4902,1.3281-.6182.7793-.1943,1.4512-.1523,2.0117.124.5625.2764.9375.7676,1.127,1.4756l.748,3.0059c.1484.5996.3525,1.0576.6094,1.373l.0254.1045-1.5273.3799Zm-1.9131-.6689c.2959-.0732.5557-.2139.7822-.4229.2246-.209.3721-.4502.4434-.7246l-.3125-1.2568-.8066.2002c-.5547.1387-.9473.3389-1.1787.6016-.2314.2617-.3027.5693-.2148.9229.0713.2871.2236.4922.457.6162.2334.1221.5098.1436.8301.0635Z"/><path class="cls-8" d="m203.3565,312.5966c-.2598-1.0439-.2275-1.9307.0977-2.6602.3232-.7305.8926-1.1973,1.7051-1.3994.7432-.1846,1.3975-.0703,1.9629.3428l-.0781-.6807,1.3301-.3311,2.2959,9.2275-1.4961.3721-.7783-3.1289c-.3213.5674-.8311.9395-1.5293,1.1123-.7969.1982-1.5127.0469-2.1484-.457-.6348-.501-1.0889-1.3008-1.3613-2.3975Zm1.5293-.2422c.1699.6816.4365,1.1816.8027,1.5039.3652.3203.7871.4219,1.2627.3037.5908-.1475.9678-.5107,1.1299-1.0859l-.7539-3.0303c-.4092-.4141-.9043-.5488-1.4873-.4033-.4756.1182-.8037.4043-.9814.8535-.1787.4502-.1689,1.0693.0273,1.8584Z"/><path class="cls-8" d="m215.5186,312.4745c-.3105.627-.8701,1.041-1.6797,1.2422-.7227.1797-1.3223.1045-1.7988-.2266-.4766-.3301-.8145-.8965-1.0137-1.6963l-1.0742-4.3184,1.4961-.3721,1.0693,4.2998c.2109.8457.667,1.1807,1.3691,1.0059.7275-.1807,1.1533-.5635,1.2783-1.1475l-1.1914-4.7871,1.4971-.3721,1.6582,6.665-1.4111.3506-.1992-.6436Z"/><path class="cls-8" d="m222.6358,311.3974c-.0977-.1104-.2061-.3037-.3271-.5791-.3525.6152-.874,1.0088-1.5645,1.1807-.6689.166-1.2627.1104-1.7803-.165-.5186-.2773-.8477-.6963-.9873-1.2598-.1768-.709-.0479-1.3203.3848-1.832.4326-.5107,1.1406-.8887,2.1221-1.1328l.918-.2275-.1094-.4375c-.0859-.3447-.251-.5977-.4951-.7568-.2451-.1602-.5635-.1904-.958-.0918-.3418.084-.5996.2393-.7754.4629-.1738.2256-.2295.4688-.1641.7314l-1.4971.373c-.0908-.3652-.0537-.7373.1084-1.1162.1631-.3789.4307-.71.8027-.9941.3711-.2852.8145-.4912,1.3281-.6182.7793-.1943,1.4512-.1533,2.0117.124.5625.2764.9375.7676,1.127,1.4756l.748,3.0059c.1484.5996.3516,1.0576.6094,1.373l.0254.1045-1.5273.3799Zm-1.9131-.6689c.2959-.0732.5557-.2139.7822-.4238.2246-.208.3721-.4492.4434-.7236l-.3125-1.2568-.8076.2002c-.5537.1377-.9463.3389-1.1777.6016-.2314.2617-.3027.5684-.2148.9219.0713.2871.2236.4932.457.6162s.5098.1445.8301.0645Z"/><path class="cls-8" d="m227.0714,310.2939l-1.4971.3721-2.3545-9.4619,1.4971-.3721,2.3545,9.4619Z"/><path class="cls-8" d="m226.6143,301.4911c-.0566-.2295-.0312-.4385.0762-.626.1084-.1885.2979-.3164.5684-.3838.2715-.0674.5-.043.6855.0713.1855.1152.3066.2881.3643.5176.0557.2266.0283.4326-.0811.6191-.1113.1865-.3018.3135-.5732.3809-.2705.0674-.498.0439-.6807-.0684-.1836-.1143-.3027-.2842-.3594-.5107Zm3.6777,8.001l-1.4961.373-1.6582-6.665,1.4961-.373,1.6582,6.665Z"/><path class="cls-8" d="m231.7364,300.3359l.4033,1.6191,1.1758-.292.2764,1.1094-1.1768.292.9258,3.7197c.0635.2549.1592.4277.2881.5146.1289.0879.3223.1006.5811.0361.1729-.043.3418-.1074.5078-.1934l.2891,1.1582c-.3174.1797-.6348.3086-.9512.3867-1.1494.2861-1.8828-.2051-2.1973-1.4727l-.9395-3.7764-1.0977.2725-.2754-1.1094,1.0967-.2725-.4033-1.6191,1.4971-.373Z"/><path class="cls-8" d="m237.9151,305.3203l.2305-4.8594,1.5957-.3965-.7402,8.335c-.127,1.2217-.6777,1.9531-1.6514,2.1953-.2168.0537-.4668.0771-.748.0693l-.29-1.1641.2891-.0537c.377-.0938.6445-.2324.8008-.417.1572-.1855.251-.4541.2812-.8057l.0732-.626-3.9902-6.0469,1.6143-.4014,2.5352,4.1709Z"/><path class="cls-8" d="m177.6964,338.6542c-.0977-.1123-.207-.3047-.3271-.5791-.3525.6143-.874,1.0088-1.5645,1.1797-.6689.167-1.2627.1113-1.7812-.1641-.5176-.2783-.8467-.6982-.9873-1.2607-.1758-.71-.0479-1.3203.3848-1.8311.4336-.5117,1.1406-.8887,2.123-1.1328l.918-.2285-.1094-.4385c-.0859-.3447-.251-.5957-.4961-.7559-.2441-.1592-.5635-.1895-.958-.0918-.3408.085-.5986.2383-.7744.4639-.1748.2246-.2295.4688-.1641.7314l-1.4971.3721c-.0908-.3662-.0547-.7373.1084-1.1152.1621-.3789.4307-.7109.8018-.9951.3721-.2842.8154-.4912,1.3281-.6191.7803-.1934,1.4512-.1523,2.0127.125s.9375.7686,1.126,1.4756l.748,3.0068c.1494.5996.3525,1.0557.6104,1.3721l.0254.1045-1.5273.3809Zm-1.9131-.6699c.2959-.0742.5557-.2148.7812-.4229.2246-.209.373-.4502.4443-.7256l-.3125-1.2568-.8076.2012c-.5537.1377-.9473.3379-1.1787.6006-.2305.2617-.3027.5703-.2148.9238.0723.2871.2246.4922.458.6152s.5098.1436.8301.0645Z"/><path class="cls-8" d="m179.4171,334.6347c-.2559-1.0273-.2227-1.9111.0996-2.6514.3213-.7412.8828-1.2109,1.6836-1.4102.7061-.1758,1.3379-.0713,1.8965.3125l-.8496-3.4121,1.4971-.3721,2.3545,9.4619-1.3555.3369-.2461-.6719c-.3125.6533-.8428,1.0732-1.5898,1.2598-.7812.1943-1.4902.0352-2.1289-.4717-.6387-.5088-1.0928-1.3027-1.3613-2.3818Zm1.5293-.2441c.1689.6777.4307,1.1738.7861,1.4902.3545.3145.7725.4121,1.2529.293.6123-.1523.9922-.5371,1.1387-1.1553l-.707-2.8447c-.4082-.4648-.918-.6221-1.5303-.4707-.4854.1211-.8096.4062-.9775.8555s-.1553,1.0596.0371,1.832Z"/><path class="cls-8" d="m185.5059,327.7949c-.0576-.2295-.0312-.4395.0762-.6279.1084-.1875.2979-.3145.5684-.3818.2715-.0674.499-.0449.6855.0703.1855.1152.3066.2881.3643.5176.0557.2266.0293.4326-.082.6191-.1104.1855-.3008.3135-.5723.3809s-.498.0439-.6807-.0693-.3027-.2822-.3594-.5088Zm2.0576,1.3262l1.8047,7.2559c.1699.6816.1299,1.2461-.1191,1.6885-.25.4434-.7012.7471-1.3545.9092-.2754.0684-.5479.1006-.8203.0928l-.2939-1.1826c.165-.001.3457-.0273.543-.0771.498-.123.6846-.458.5615-1.0029l-1.8184-7.3105,1.4971-.373Z"/><path class="cls-8" d="m194.6954,333.7314c-.3105.626-.8711,1.041-1.6797,1.2422-.7227.1797-1.3223.1035-1.7998-.2275-.4766-.3291-.8145-.8955-1.0137-1.6953l-1.0742-4.3184,1.4961-.373,1.0703,4.2988c.21.8467.666,1.1826,1.3691,1.0078.7266-.1807,1.1523-.5635,1.2773-1.1484l-1.1904-4.7861,1.4961-.3721,1.6582,6.665-1.4102.3506-.1992-.6436Z"/><path class="cls-8" d="m201.1153,330.9042c-.0664-.2676-.2275-.4424-.4814-.5283-.2549-.0859-.6494-.1182-1.1855-.0967-.5361.0195-.9941-.0107-1.377-.0908-.8359-.1748-1.3408-.6045-1.5117-1.291-.1426-.5752-.0195-1.1162.3691-1.623.3887-.5059.9561-.8525,1.7041-1.0381.7959-.1982,1.4893-.1611,2.0771.1113.5889.2725.9619.7217,1.1182,1.3506l-1.4971.3721c-.0713-.2881-.2373-.499-.499-.6387-.2607-.1377-.5674-.1621-.9209-.0742-.3281.0811-.5771.2246-.7471.4268-.1689.2051-.2227.4336-.1592.6885.0566.2305.1982.3848.4229.4648.2246.0791.6475.1094,1.2666.0938.6182-.0186,1.1182.0225,1.498.1162.3789.0967.6797.249.9043.459s.3818.4941.4707.8506c.1484.5996.0215,1.1484-.3828,1.6426-.4053.4951-1.0098.8438-1.8145,1.0439-.5469.1357-1.0566.1582-1.5332.0674s-.876-.2793-1.2002-.5654c-.3242-.2852-.5361-.627-.6348-1.0254l1.4541-.3613c.1074.3467.3096.5859.6035.7168.293.1289.6445.1436,1.0508.042.3945-.0977.6748-.248.8428-.4482.168-.2012.2217-.4229.1621-.665Z"/><path class="cls-8" d="m204.1553,323.2734l.4023,1.6201,1.1768-.293.2764,1.1084-1.1777.293.9258,3.7207c.0645.2549.1602.4258.2891.5137s.3223.0996.5811.0352c.1729-.043.3418-.1064.5078-.1924l.2881,1.1582c-.3164.1787-.6338.3086-.9502.3877-1.1494.2861-1.8828-.207-2.1982-1.4746l-.9395-3.7764-1.0967.2725-.2754-1.1084,1.0967-.2725-.4033-1.6201,1.4971-.3721Z"/><path class="cls-8" d="m208.2852,323.9658l.2158.6855c.332-.6631.9053-1.0957,1.7178-1.2979.8916-.2217,1.5859-.0322,2.084.5684.3154-.8027.9121-1.3145,1.791-1.5322.7344-.1836,1.333-.1152,1.7939.2002.46.3193.793.8721.998,1.6621l1.0898,4.3809-1.4971.3721-1.0791-4.3369c-.1045-.4229-.2744-.71-.5088-.8613-.2334-.1514-.5635-.1738-.9912-.0674-.3398.084-.5957.2451-.7656.4824-.1699.2363-.2617.5127-.2744.8301l1.1426,4.5693-1.4961.3721-1.0918-4.3867c-.2158-.7783-.7139-1.0713-1.4932-.8779-.5996.1494-.9639.5-1.0938,1.0508l1.2021,4.8301-1.4971.373-1.6582-6.665,1.4111-.3516Z"/><path class="cls-8" d="m222.4776,327.6435c-.9482.2354-1.791.1279-2.5293-.3232s-1.2305-1.1738-1.4775-2.167l-.0459-.1855c-.166-.665-.1855-1.291-.0586-1.8779.126-.5879.3848-1.085.7764-1.4922.3916-.4062.873-.6816,1.4434-.8242.9072-.2256,1.6807-.1104,2.3203.3467.6387.4541,1.0898,1.2129,1.3535,2.2725l.1494.6035-4.3545,1.084c.1816.5391.4736.9287.877,1.168.4014.2402.8467.2998,1.335.1787.6855-.1709,1.1758-.5869,1.4688-1.248l.999.5684c-.168.4639-.4473.8623-.8389,1.1924-.3906.3311-.8633.5654-1.418.7041Zm-1.5986-5.667c-.4111.1025-.7061.3281-.8877.6797-.1807.3496-.2432.79-.1846,1.3213l2.8525-.71-.0273-.1113c-.1582-.4932-.3857-.8379-.6836-1.0361-.2988-.1982-.6553-.2471-1.0693-.1436Z"/><path class="cls-8" d="m226.0128,319.5556l.2344.7598c.3457-.7197.918-1.1787,1.7188-1.3779,1.3877-.3447,2.292.2754,2.7119,1.8574l1.0957,4.4053-1.4971.3721-1.0742-4.3184c-.1055-.4229-.2744-.7139-.5078-.8711-.2324-.1582-.5566-.1865-.9727-.083-.6035.1504-.9844.5361-1.1445,1.1562l1.1807,4.7432-1.4971.3721-1.6582-6.665,1.4102-.3506Z"/><path class="cls-8" d="m233.1124,316.0683l.4033,1.6201,1.1768-.292.2754,1.1084-1.1758.292.9258,3.7207c.0625.2549.1582.4268.2871.5146.1289.0869.3232.0986.582.0352.1719-.043.3418-.1074.5078-.1934l.2881,1.1582c-.3174.1797-.6338.3096-.9502.3877-1.1504.2861-1.8828-.2061-2.1982-1.4736l-.9404-3.7764-1.0957.2725-.2754-1.1084,1.0957-.2725-.4023-1.6201,1.4961-.373Z"/><path class="cls-8" d="m270.9971,271.4706l.3721-.8633c.1836-.4365.2188-.8301.1094-1.1797-.1133-.3506-.3789-.6162-.7988-.7969-.4043-.1738-.7637-.2041-1.0781-.0879s-.5654.3916-.7529.8271c-.1641.3799-.1904.7402-.0752,1.0801.1133.3389.3477.585.7012.7373l-.6104,1.417c-.4355-.1875-.7822-.4746-1.04-.8594-.2578-.3857-.3975-.8291-.4189-1.3281-.0215-.501.0771-1.0078.2979-1.5195.3652-.8477.8652-1.4219,1.5-1.7227.6338-.2998,1.3301-.2871,2.0879.04.3809.1641.6855.4395.918.8271.2314.3887.3496.8115.3545,1.2695.3604-.3975.7646-.6436,1.2109-.7393s.9072-.041,1.3809.1631c.7617.3281,1.2549.8516,1.4814,1.5684.2256.7168.1543,1.501-.2129,2.3516-.3516.8164-.8574,1.3906-1.5166,1.7236s-1.3506.3447-2.0742.0322l.6104-1.416c.373.1611.7305.166,1.0723.0156.3408-.1504.6025-.4365.7852-.8604.1895-.4385.2217-.835.0977-1.1885-.125-.3525-.4082-.625-.8516-.8154-.4453-.1924-.8477-.209-1.2012-.0479-.3555.1592-.6465.5-.8701,1.0205l-.3594.834-1.1191-.4824Z"/><path class="cls-8" d="m277.0342,266.8154c.1143-.2646.2764-.4365.4873-.5156.2129-.0801.4307-.0703.6572.0273.2197.0947.373.2461.457.4531.083.2051.0693.4414-.0449.7051-.1084.2529-.2676.4219-.4746.5078s-.4238.0801-.6494-.0176c-.2256-.0967-.3818-.25-.4697-.458s-.0752-.4424.0371-.7021Z"/><path class="cls-8" d="m280.9229,261.8974l-8.4873-3.6582,1.0811-2.5068c.3232-.751.7764-1.3447,1.3613-1.7803.585-.4375,1.2529-.6826,2.0049-.7363.751-.0547,1.5234.0898,2.3154.4307l.4248.1836c.8057.3467,1.4434.8125,1.915,1.3955.4727.584.7461,1.2432.8213,1.9785.0742.7344-.0537,1.4844-.3828,2.25l-1.0537,2.4434Zm-6.6621-4.6211l6.1211,2.6387.4141-.9619c.334-.7734.3467-1.4717.042-2.0947-.3057-.6211-.9082-1.1318-1.8105-1.5303l-.4727-.2031c-.9219-.3975-1.7109-.5-2.3691-.3096-.6582.1914-1.1514.667-1.4795,1.4297l-.4453,1.0312Z"/><path class="cls-8" d="m285.8506,250.4658c-.1475.0107-.3672-.0195-.6592-.0908.2764.6533.2734,1.3076-.0078,1.96-.2734.6328-.6777,1.0723-1.21,1.3164-.5352.2441-1.0684.252-1.6006.0225-.6719-.2891-1.0801-.7607-1.2246-1.415-.1445-.6553-.0156-1.4463.3848-2.375l.374-.8691-.4141-.1777c-.3262-.1406-.627-.1621-.9023-.0645-.2744.0977-.4922.334-.6533.707-.1387.3223-.1729.6211-.0996.8965.0723.2754.2324.4668.4814.5742l-.6104,1.416c-.3467-.1484-.6191-.4023-.8223-.7617-.2031-.3584-.3047-.7725-.3047-1.2402-.002-.4688.1025-.9453.3115-1.4316.3184-.7383.7588-1.2471,1.3193-1.5254.5596-.2793,1.1777-.2803,1.8555-.002l2.8447,1.2256c.5674.2451,1.0537.3594,1.4619.3467l.0986.043-.623,1.4453Zm-1.6914,1.1172c.1201-.2803.167-.5723.1367-.8779s-.1318-.5703-.3076-.793l-1.1895-.5127-.3291.7637c-.2256.5244-.3047.959-.2354,1.3018.0674.3428.2686.5859.6035.7305.2715.1162.5273.1201.7676.0088.2393-.1113.4229-.3184.5537-.6211Z"/><path class="cls-8" d="m279.9356,242.621l1.5322.6611.4795-1.1133,1.0498.4521-.4795,1.1133,3.5205,1.5176c.2412.1035.4355.1318.584.082.1475-.0488.2744-.1963.3799-.4404.0703-.1641.1211-.3369.1543-.5215l1.0957.4727c-.0488.3613-.1387.6914-.2676.9902-.4688,1.0879-1.3047,1.373-2.5039.8564l-3.5742-1.541-.4473,1.0381-1.0488-.4521.4473-1.0381-1.5332-.6602.6113-1.417Z"/><path class="cls-8" d="m290.3458,240.038c-.1475.0098-.3672-.0205-.6592-.0908.2764.6533.2725,1.3057-.0088,1.959-.2725.6338-.6768,1.0723-1.209,1.3174-.5352.2441-1.0684.252-1.6016.0225-.6719-.29-1.0791-.7617-1.2236-1.416s-.0156-1.4463.3848-2.375l.374-.8682-.4141-.1787c-.3262-.1416-.627-.1611-.9023-.0645-.2754.0986-.4922.335-.6533.708-.1387.3223-.1729.6211-.1006.8965s.2344.4668.4824.5742l-.6104,1.416c-.3467-.1494-.6201-.4033-.8223-.7617-.2031-.3594-.3047-.7734-.3057-1.2412-.001-.4688.1035-.9453.3125-1.4307.3184-.7393.7578-1.248,1.3184-1.5273.5605-.2783,1.1787-.2793,1.8564-.001l2.8447,1.2256c.5674.2451,1.0547.3604,1.4619.3477l.0986.042-.623,1.4463Zm-1.6914,1.1152c.1201-.2793.166-.5713.1367-.877-.0303-.3057-.1318-.5693-.3086-.793l-1.1885-.5127-.3291.7637c-.2266.5244-.3047.959-.2354,1.3018.0674.3428.2686.5859.6035.7305.2715.1172.5273.1201.7666.0088.2402-.1104.4238-.3184.5547-.6221Z"/><path class="cls-8" d="m289.4659,233.2578c-.9873-.4258-1.6729-.9893-2.0576-1.6885-.3848-.7012-.4111-1.4355-.0801-2.2051.3037-.7031.791-1.1543,1.4619-1.3545l-.5889-.3496.543-1.2598,8.7324,3.7637-.6104,1.417-2.9619-1.2764c.2578.5996.2441,1.2295-.04,1.8896-.3252.7539-.8799,1.2324-1.665,1.4326-.7842.2012-1.6953.0781-2.7334-.3691Zm.7334-1.3633c.6445.2773,1.2051.3682,1.6836.2715.4756-.0957.8125-.3691,1.0059-.8203.2412-.5596.1816-1.0781-.1777-1.5557l-2.8691-1.2363c-.5762.0742-.9834.3867-1.2207.9385-.1953.4512-.166.8838.084,1.2979s.748.7822,1.4941,1.1045Z"/><path class="cls-8" d="m296.7383,223.5078c.3105.626.2998,1.3232-.0303,2.0889-.2939.6836-.7178,1.1152-1.2705,1.2939-.5518.1797-1.2061.1055-1.9629-.2207l-4.0869-1.7617.6104-1.416,4.0684,1.7529c.8008.3457,1.3447.1855,1.6309-.4785.2969-.6875.25-1.2588-.1396-1.7129l-4.5293-1.9521.6104-1.416,6.3066,2.7178-.5752,1.3359-.6318-.2314Z"/><path class="cls-8" d="m300.1924,217.1923c-.1475.0107-.3672-.0195-.6592-.0898.2764.6533.2734,1.3066-.0078,1.959-.2734.6338-.6777,1.0723-1.2109,1.3174-.5342.2441-1.0674.252-1.5996.0225-.6719-.29-1.0801-.7617-1.2246-1.416s-.0156-1.4463.3848-2.375l.374-.8691-.415-.1777c-.3262-.1406-.626-.1621-.9014-.0635-.2744.0967-.4922.333-.6533.7061-.1387.3223-.1729.6221-.1006.8965.0732.2764.2334.4678.4824.5742l-.6104,1.417c-.3467-.1494-.6191-.4033-.8223-.7617-.2031-.3594-.3047-.7734-.3047-1.2412-.002-.4688.1025-.9453.3115-1.4307.3184-.7393.7588-1.248,1.3184-1.5264.5605-.2793,1.1787-.2803,1.8564-.002l2.8447,1.2256c.5674.2451,1.0537.3604,1.4619.3467l.0986.043-.623,1.4453Zm-1.6914,1.1172c.1201-.2803.167-.5723.1367-.8779s-.1318-.5693-.3076-.793l-1.1895-.5127-.3291.7637c-.2256.5254-.3047.959-.2354,1.3018.0674.3428.2686.5869.6035.7305.2715.1172.5273.1201.7676.0088.2383-.1104.4229-.3184.5537-.6211Z"/><path class="cls-8" d="m302.001,212.9951l-.6104,1.417-8.9531-3.8594.6104-1.417,8.9531,3.8594Z"/><path class="cls-8" d="m294.7217,208.0263c-.2178-.0938-.3682-.2412-.4531-.4404-.084-.2002-.0703-.4287.04-.6846s.2676-.4238.4717-.502.415-.0693.6318.0234c.2148.0928.3623.2393.4434.4395.082.2012.0674.4307-.043.6865-.1113.2568-.2666.4229-.4688.501-.2012.0762-.4082.0684-.6221-.0234Zm8.5938,1.9199l-.6104,1.417-6.3076-2.7188.6104-1.416,6.3076,2.7178Z"/><path class="cls-8" d="m296.9053,203.2509l1.5322.6611.4805-1.1143,1.0488.4521-.4795,1.1143,3.5205,1.5176c.2412.1035.4355.1309.584.082.1475-.0498.2744-.1963.3799-.4414.0703-.1631.1221-.3369.1543-.5205l1.0967.4717c-.0498.3613-.1387.6914-.2676.9912-.4697,1.0889-1.3047,1.373-2.5049.8564l-3.5732-1.541-.4473,1.0381-1.0498-.4521.4473-1.0381-1.5322-.6602.6104-1.417Z"/><path class="cls-8" d="m304.6133,201.3544l-3.7256-3.126.6504-1.5098,6.1826,5.6367c.8955.8418,1.1436,1.7236.7471,2.6445-.0889.2061-.2217.418-.3994.6367l-1.1006-.4746.1328-.2607c.1533-.3574.2051-.6543.1533-.8916-.0527-.2363-.21-.4736-.4707-.7109l-.4541-.4375-7.2275-.4883.6582-1.5273,4.8535.5088Z"/><path class="cls-8" d="m293.668,271.7382c-.1465.0107-.3662-.0195-.6582-.0908.2754.6533.2734,1.3066-.0088,1.96-.2725.6338-.6768,1.0713-1.21,1.3164-.5352.2451-1.0674.252-1.5996.0225-.6719-.2891-1.0801-.7617-1.2246-1.416s-.0156-1.4453.3848-2.374l.374-.8682-.415-.1797c-.3262-.1406-.627-.1611-.9014-.0635-.2744.0986-.4932.334-.6533.707-.1396.3223-.1738.6211-.1006.8965.0723.2754.2334.4668.4814.5742l-.6104,1.416c-.3457-.1494-.6191-.4033-.8213-.7617-.2031-.3584-.3047-.7725-.3057-1.2412-.001-.4678.1035-.9443.3125-1.4307.3184-.7383.7578-1.2471,1.3184-1.5264.5605-.2783,1.1787-.2793,1.8564-.001l2.8438,1.2256c.5684.2451,1.0547.3594,1.4629.3467l.0977.042-.623,1.4463Zm-1.6914,1.1162c.1211-.2793.167-.5713.1377-.877-.0303-.3066-.1318-.5703-.3076-.793l-1.1895-.5127-.3301.7637c-.2256.5244-.3037.958-.2354,1.3018.0684.3418.2695.5859.6045.7305.2715.1172.5273.1201.7666.0078.2393-.1104.4238-.3184.5537-.6211Z"/><path class="cls-8" d="m294.6378,264.7744c-.2529-.1094-.4893-.0879-.7109.0625s-.4873.4453-.7959.8848c-.3086.4375-.6104.7852-.9053,1.04-.6465.5596-1.2939.7002-1.9434.4209-.5439-.2354-.9004-.6602-1.0674-1.2764s-.0996-1.2773.2061-1.9844c.3242-.7539.7734-1.2832,1.3467-1.5869s1.1572-.3271,1.7529-.0703l-.6104,1.416c-.2734-.1172-.543-.1133-.8115.0098-.2666.125-.4736.3535-.6172.6885-.1338.3105-.1709.5947-.1123.8535.0596.2578.209.4385.4502.543.2178.0938.4258.0752.626-.0557.1992-.1299.4785-.4473.8418-.9502.3613-.5029.6953-.876,1-1.1211.3066-.2432.6104-.3906.9131-.4424.3037-.0508.625-.0039.9619.1426.5684.2441.9268.6777,1.0762,1.2988.1484.6221.0586,1.3145-.2695,2.0762-.2227.5166-.5146.9365-.875,1.2598-.3613.3242-.7539.5283-1.1768.6133-.4238.085-.8242.0459-1.2002-.1162l.5928-1.376c.3418.125.6533.1094.9346-.0469.2812-.1543.5049-.4248.6709-.8096.1611-.373.2119-.6865.1543-.9424s-.2021-.4326-.4316-.5312Z"/><path class="cls-8" d="m297.294,258.6122c-.2529-.1094-.4893-.0879-.7109.0635-.2227.1514-.4873.4453-.7959.8838-.3096.4385-.6104.7852-.9062,1.041-.6465.5596-1.2939.7002-1.9424.4199-.5449-.2344-.9004-.6602-1.0684-1.2754-.167-.6162-.0986-1.2783.2061-1.9854.3252-.7539.7744-1.2822,1.3477-1.5859s1.1562-.3271,1.752-.0713l-.6104,1.417c-.2725-.1172-.542-.1143-.8105.0098-.2676.125-.4736.3545-.6172.6885-.1338.3105-.1719.5947-.1133.8535.0596.2578.21.4385.4502.543.2188.0938.4268.0742.627-.0557.1982-.1299.4785-.4482.8408-.9502.3613-.5029.6963-.877,1.001-1.1211.3057-.2432.6094-.3906.9121-.4424.3047-.0518.625-.0039.9629.1416.5674.2441.9258.6777,1.0752,1.2998.1484.6221.0596,1.3135-.2686,2.0752-.2236.5176-.5156.9375-.876,1.2607s-.7529.5283-1.1768.6123c-.4238.085-.8242.0469-1.2002-.1162l.5928-1.376c.3418.125.6543.1094.9355-.0459s.5049-.4248.6699-.8096c.1611-.373.2129-.6875.1553-.9434-.0586-.2549-.2021-.4326-.4316-.5312Z"/><path class="cls-8" d="m301.4532,253.998c-.3867.8975-.9824,1.5039-1.7891,1.8174-.8057.3135-1.6787.2676-2.6182-.1367l-.1758-.0762c-.6299-.2715-1.1396-.6348-1.5303-1.0918-.3916-.4561-.6299-.9639-.7168-1.5215-.0859-.5586-.0137-1.1074.2197-1.6475.3701-.8584.9297-1.4043,1.6807-1.6357.749-.2324,1.625-.1328,2.6279.2988l.5713.2471-1.7764,4.1211c.5391.1826,1.0264.1855,1.46.0107.4355-.1738.752-.4932.9512-.9551.2803-.6484.2451-1.291-.1025-1.9248l1.0566-.4502c.2686.415.415.8789.4414,1.3906.0264.5107-.0732,1.0293-.2998,1.5537Zm-5.4766-2.1602c-.168.3887-.166.7607.0029,1.1172s.4814.6719.9395.9473l1.1631-2.6982-.1055-.0459c-.4873-.1729-.9004-.2012-1.2383-.084-.3379.1162-.5928.3711-.7617.7637Z"/><path class="cls-8" d="m302.711,246.0449c-.2529-.1084-.4902-.0879-.7109.0635-.2227.1504-.4873.4453-.7959.8838-.3096.4385-.6104.7852-.9053,1.04-.6465.5605-1.2949.7002-1.9434.4199-.5449-.2344-.9004-.6592-1.0684-1.2754-.167-.6152-.0986-1.2773.2061-1.9844.3252-.7539.7744-1.2832,1.3477-1.5859.5732-.3037,1.1562-.3281,1.752-.0713l-.6104,1.417c-.2734-.1182-.543-.1152-.8105.0098s-.4736.3535-.6172.6875c-.1348.3105-.1719.5957-.1133.8535.0605.2588.209.4395.4512.543.2178.0938.4258.0762.625-.0547s.4795-.4482.8418-.9512c.3613-.502.6963-.876,1.001-1.1201.3057-.2432.6104-.3916.9131-.4424.3037-.0518.625-.0039.9619.1406.5674.2451.9268.6787,1.0752,1.3008.1484.6211.0596,1.3125-.2695,2.0742-.2227.5176-.5137.9375-.875,1.2617-.3604.3232-.7529.5273-1.1758.6123-.4248.085-.8242.0459-1.2012-.1162l.5938-1.376c.3418.124.6533.1094.9346-.0459.2803-.1553.5049-.4258.6709-.8105.1602-.373.2119-.6875.1543-.9424-.0586-.2549-.2021-.4326-.4316-.5312Z"/><path class="cls-8" d="m305.3672,239.8837c-.2539-.1094-.4902-.0879-.7109.0625-.2227.1504-.4883.4453-.7959.8848-.3096.4375-.6104.7852-.9062,1.04-.6465.5596-1.2939.7002-1.9434.4209-.5439-.2354-.8994-.6602-1.0674-1.2764-.167-.6162-.0986-1.2773.2061-1.9854.3252-.7529.7744-1.2822,1.3467-1.5859.5732-.3037,1.1572-.3271,1.7529-.0703l-.6104,1.416c-.2734-.1172-.543-.1133-.8115.0098-.2666.125-.4727.3535-.6172.6875-.1338.3115-.1709.5957-.1123.8545.0596.2578.209.4385.4502.543.2178.0938.4268.0752.626-.0557s.4795-.4473.8418-.9502c.3613-.5029.6953-.876,1-1.1211.3066-.2432.6104-.3906.9131-.4424.3037-.0508.625-.0039.9619.1426.5684.2441.9268.6777,1.0762,1.2988.1484.6221.0586,1.3135-.2695,2.0762-.2227.5156-.5146.9365-.875,1.2598-.3613.3242-.7539.5283-1.1768.6133-.4238.085-.8242.0449-1.2002-.1172l.5928-1.375c.3418.124.6533.1084.9355-.0469.2803-.1553.5049-.4248.6699-.8096.1611-.373.2129-.6875.1543-.9424-.0576-.2559-.2021-.4326-.4307-.5312Z"/><path class="cls-8" d="m302.4796,233.9453l.6768.2432c-.3262-.666-.3242-1.3838.0078-2.1533.3633-.8428.9355-1.2812,1.7148-1.3135-.4482-.7373-.4922-1.5205-.1348-2.3525.3008-.6953.7168-1.1309,1.2471-1.3057.5322-.1738,1.1738-.1035,1.9268.2129l4.1445,1.7861-.6104,1.417-4.1035-1.7695c-.4004-.1719-.7314-.2119-.9932-.1172-.2627.0947-.4805.3438-.6543.748-.1396.3223-.166.623-.0811.9023.085.2783.25.5186.4951.7207l4.3271,1.8584-.6104,1.417-4.1504-1.7891c-.751-.3008-1.2852-.082-1.6035.6562-.2451.5674-.1865,1.0693.1738,1.5059l4.5703,1.9707-.6113,1.416-6.3066-2.7188.5752-1.335Z"/><path class="cls-8" d="m314.004,224.8808c-.3867.8975-.9834,1.5039-1.79,1.8174-.8047.3145-1.6787.2676-2.6182-.1367l-.1758-.0762c-.6299-.2715-1.1396-.6348-1.5293-1.0908-.3916-.457-.6309-.9639-.7168-1.5225-.0869-.5576-.0137-1.1064.2188-1.6475.3711-.8584.9297-1.4033,1.6807-1.6357.749-.2324,1.626-.1328,2.6279.2998l.5723.2461-1.7773,4.1211c.54.1826,1.0264.1855,1.4609.0107.4346-.1738.752-.4922.9512-.9551.2793-.6484.2451-1.29-.1035-1.9238l1.0576-.4502c.2686.415.415.8779.4414,1.3896s-.0732,1.0293-.2998,1.5537Zm-5.4775-2.1602c-.167.3887-.166.7607.0039,1.1182.1689.3555.4814.6719.9385.9473l1.1641-2.6992-.1055-.0459c-.4883-.1729-.9004-.2012-1.2383-.084-.3389.1162-.5938.3711-.7627.7637Z"/><path class="cls-8" d="m309.711,217.1689l.7461.2734c-.3633-.709-.3809-1.4434-.0537-2.2012.5654-1.3125,1.6064-1.6572,3.1191-1.0322l4.1689,1.7959-.6113,1.417-4.0859-1.7607c-.4004-.1729-.7334-.2148-1.001-.125-.2666.0908-.4854.332-.6543.7246-.2461.5703-.1699,1.1074.2256,1.6104l4.4883,1.9346-.6104,1.416-6.3076-2.7188.5762-1.334Z"/><path class="cls-8" d="m311.2383,209.4081l1.5332.6611.4795-1.1133,1.0498.4521-.4805,1.1133,3.5205,1.5176c.2412.1035.4365.1309.583.0811.1484-.0488.2754-.1953.3809-.4395.0703-.1641.1221-.3379.1543-.5215l1.0957.4727c-.0488.3604-.1377.6914-.2666.9902-.4697,1.0879-1.3047,1.373-2.5049.8555l-3.5732-1.54-.4473,1.0381-1.0498-.4531.4473-1.0371-1.5322-.6602.6104-1.417Z"/><path class="cls-9" d="m140.4312,171.1484h-1.9277v3.8281h-1.7295v-9.9531h3.5c1.1484,0,2.0347.2578,2.6592.7734s.9365,1.2607.9365,2.2373c0,.666-.1606,1.2236-.4819,1.6729s-.769.7939-1.3433,1.0361l2.2354,4.1445v.0889h-1.8525l-1.9961-3.8281Zm-1.9277-1.3945h1.7773c.5835,0,1.0391-.1465,1.3672-.4414.3281-.293.4922-.6953.4922-1.2061,0-.5332-.1514-.9453-.4546-1.2373s-.7554-.4424-1.3569-.4512h-1.8252v3.3359Z"/><path class="cls-9" d="m147.7525,165.0234l2.8711,7.6289,2.8643-7.6289h2.2354v9.9531h-1.7227v-3.2812l.1709-4.3887-2.9395,7.6699h-1.2373l-2.9326-7.6631.1709,4.3818v3.2812h-1.7227v-9.9531h2.2422Z"/><path class="cls-9" d="m165.6627,174.9765h-1.7295l-4.4365-7.0615v7.0615h-1.7295v-9.9531h1.7295l4.4502,7.0889v-7.0889h1.7158v9.9531Z"/><path class="cls-9" d="m175.3018,171.7363c-.1006,1.0615-.4922,1.8906-1.1758,2.4844-.6836.5957-1.5933.8926-2.728.8926-.793,0-1.4912-.1875-2.0952-.5645-.604-.375-1.0698-.9102-1.3979-1.6025s-.499-1.4971-.5127-2.4131v-.9297c0-.9385.1665-1.7656.499-2.4814s.8101-1.2666,1.4321-1.6543,1.3408-.5811,2.1567-.5811c1.0981,0,1.9829.2969,2.6528.8926.6699.5938,1.0596,1.4365,1.1689,2.5254h-1.7227c-.082-.7158-.291-1.2314-.626-1.5488-.335-.3164-.8262-.4746-1.4731-.4746-.752,0-1.3296.2744-1.7329.8242s-.6094,1.3564-.6187,2.4189v.8828c0,1.0762.1924,1.8975.5776,2.4629s.9492.8486,1.6919.8486c.6792,0,1.1895-.1523,1.5312-.458s.5581-.8135.6499-1.5244h1.7227Z"/><path class="cls-9" d="m182.418,172.6591h-3.8555l-.8066,2.3174h-1.7979l3.7598-9.9531h1.5518l3.7666,9.9531h-1.8047l-.8135-2.3174Zm-3.3701-1.3945h2.8848l-1.4424-4.1289-1.4424,4.1289Z"/><path class="cls-9" d="m194.0665,174.9765h-1.7227v-4.416h-4.4502v4.416h-1.7295v-9.9531h1.7295v4.1426h4.4502v-4.1426h1.7227v9.9531Z"/><path class="cls-9" d="m199.1729,171.415h-3.5889v-1.3398h3.5889v1.3398Z"/><path class="cls-9" d="m208.5997,174.9765h-1.7295l-4.4365-7.0615v7.0615h-1.7295v-9.9531h1.7295l4.4502,7.0889v-7.0889h1.7158v9.9531Z"/><path class="cls-9" d="m142.0616,189.2128c0-.4375-.1538-.7744-.4614-1.0117s-.8623-.4766-1.6646-.7178-1.4399-.5107-1.9141-.8066c-.9067-.5693-1.3604-1.3125-1.3604-2.2285,0-.8018.3271-1.4629.981-1.9824s1.5029-.7793,2.5464-.7793c.6929,0,1.3101.1279,1.8525.3828s.9683.6191,1.2783,1.0898c.3101.4727.4648.9951.4648,1.5693h-1.7227c0-.5195-.1631-.9268-.4888-1.2197-.3257-.2949-.792-.4414-1.3979-.4414-.5649,0-1.0039.1211-1.3159.3623s-.4683.5791-.4683,1.0117c0,.3643.1685.6689.5059.9131.3374.2432.8931.4805,1.668.7109.7749.2295,1.397.4922,1.8662.7852.4692.2949.8135.6318,1.0322,1.0117.2188.3809.3281.8262.3281,1.3369,0,.8291-.3179,1.4893-.9536,1.9795-.6357.4893-1.498.7344-2.5874.7344-.7202,0-1.3818-.1328-1.9858-.4004-.604-.2656-1.0732-.6338-1.4082-1.1035s-.5024-1.0166-.5024-1.6406h1.7295c0,.5654.187,1.0029.5605,1.3125s.9092.4648,1.6064.4648c.6016,0,1.0537-.1221,1.3569-.3652.3032-.2441.4546-.5664.4546-.9678Z"/><path class="cls-9" d="m148.4053,191.913c-1.0527,0-1.9062-.332-2.5601-.9941-.6538-.6641-.981-1.5469-.981-2.6494v-.2051c0-.7383.1426-1.3975.4272-1.9795.2847-.5801.6846-1.0332,1.1997-1.3564s1.0894-.4854,1.7227-.4854c1.0073,0,1.7852.3213,2.3345.9639s.8237,1.5518.8237,2.7275v.6699h-4.833c.0503.6104.2539,1.0938.6118,1.4492s.8076.5332,1.3501.5332c.7612,0,1.3809-.3076,1.8594-.9229l.8955.8545c-.2964.4424-.6914.7852-1.186,1.0293-.4946.2432-1.0493.3652-1.6646.3652Zm-.1982-6.3369c-.4556,0-.8237.1592-1.104.4785s-.459.7637-.5366,1.333h3.165v-.123c-.0366-.5557-.1846-.9766-.4443-1.2617-.2598-.2842-.6196-.4268-1.0801-.4268Z"/><path class="cls-9" d="m156.5333,185.8974c-.2188-.0361-.4443-.0547-.6768-.0547-.7612,0-1.2739.292-1.5381.875v5.0586h-1.6611v-7.3965h1.5859l.041.8271c.4009-.6426.957-.9639,1.668-.9639.2368,0,.4331.0322.5879.0957l-.0068,1.5586Z"/><path class="cls-9" d="m160.3135,189.6708l1.5654-5.291h1.7158l-2.5635,7.3965h-1.4424l-2.584-7.3965h1.7227l1.5859,5.291Z"/><path class="cls-9" d="m164.6339,182.4589c0-.2549.0811-.4668.2427-.6357s.3931-.2529.6938-.2529.5332.084.6973.2529.2461.3809.2461.6357c0,.251-.082.459-.2461.626-.1641.166-.3965.249-.6973.249s-.5322-.083-.6938-.249c-.1616-.167-.2427-.375-.2427-.626Zm1.7637,9.3174h-1.6611v-7.3965h1.6611v7.3965Z"/><path class="cls-9" d="m171.2442,190.5869c.4146,0,.7588-.1211,1.0322-.3623s.4194-.54.4375-.8955h1.5654c-.0176.46-.1611.8896-.4307,1.2891-.2686.3984-.6333.7139-1.0938.9463s-.957.3486-1.4902.3486c-1.0347,0-1.855-.335-2.4609-1.0049s-.9092-1.5947-.9092-2.7754v-.1709c0-1.126.3008-2.0273.9023-2.7031.6016-.6777,1.4219-1.0156,2.4609-1.0156.8794,0,1.5962.2559,2.1504.7695.5537.5117.8438,1.1855.8711,2.0195h-1.5654c-.0181-.4238-.1631-.7725-.4341-1.0459s-.6162-.4102-1.0356-.4102c-.5376,0-.9526.1943-1.2441.585-.2915.3887-.4399.9805-.4443,1.7734v.2666c0,.8018.1445,1.4004.4341,1.7939.2896.3945.7075.5918,1.2544.5918Z"/><path class="cls-9" d="m178.7911,191.913c-1.0527,0-1.9062-.332-2.5596-.9941-.6543-.6641-.9814-1.5469-.9814-2.6494v-.2051c0-.7383.1426-1.3975.4277-1.9795.2842-.5801.6846-1.0332,1.1992-1.3564.5156-.3232,1.0898-.4854,1.7227-.4854,1.0078,0,1.7852.3213,2.335.9639.5488.6426.8232,1.5518.8232,2.7275v.6699h-4.833c.0508.6104.2539,1.0938.6123,1.4492.3574.3555.8076.5332,1.3496.5332.7617,0,1.3809-.3076,1.8594-.9229l.8955.8545c-.2959.4424-.6914.7852-1.1855,1.0293-.4951.2432-1.0498.3652-1.665.3652Zm-.1982-6.3369c-.4551,0-.8232.1592-1.1035.4785s-.459.7637-.5371,1.333h3.165v-.123c-.0361-.5557-.1846-.9766-.4443-1.2617-.2598-.2842-.6191-.4268-1.0801-.4268Z"/><path class="cls-9" d="m193.9737,181.8232v6.6514c0,1.0576-.3379,1.8945-1.0146,2.5127-.6768.6172-1.5781.9258-2.7041.9258-1.1387,0-2.0439-.3047-2.7139-.9121-.6699-.6094-1.0049-1.4531-1.0049-2.5332v-6.6445h1.7227v6.6582c0,.665.1689,1.1738.5059,1.5244.3379.3506.834.5264,1.4902.5264,1.3311,0,1.9961-.7021,1.9961-2.1055v-6.6035h1.7227Z"/><path class="cls-9" d="m199.8047,189.7665c0-.2959-.1221-.5215-.3652-.6768-.2441-.1553-.6484-.292-1.2139-.4102-.5645-.1182-1.0361-.2686-1.415-.4512-.8291-.4014-1.2441-.9824-1.2441-1.7432,0-.6377.2695-1.1709.8066-1.5996.5381-.4287,1.2217-.6426,2.0508-.6426.8848,0,1.5986.2188,2.1436.6562.5439.4375.8164,1.0049.8164,1.7021h-1.6611c0-.3193-.1182-.585-.3555-.7959-.2363-.2129-.5508-.3184-.9434-.3184-.3643,0-.6621.084-.8916.2529-.2305.1689-.3457.3945-.3457.6768,0,.2549.1074.4531.3213.5947.2148.1416.6475.2842,1.2988.4268.6523.1445,1.1631.3145,1.5352.5137.3711.1973.6465.4355.8271.7139.1797.2783.2695.6152.2695,1.0117,0,.665-.2754,1.2041-.8271,1.6162-.5508.4131-1.2734.6191-2.167.6191-.6055,0-1.1455-.1094-1.6201-.3281-.4736-.2188-.8428-.5195-1.1074-.9023-.2637-.3828-.3965-.7949-.3965-1.2373h1.6133c.0234.3916.1709.6943.4443.9053.2734.2129.6357.3184,1.0869.3184.4375,0,.7705-.083.998-.25.2285-.166.3418-.3838.3418-.6523Z"/><path class="cls-9" d="m206.1417,191.913c-1.0527,0-1.9062-.332-2.5596-.9941-.6543-.6641-.9814-1.5469-.9814-2.6494v-.2051c0-.7383.1426-1.3975.4277-1.9795.2842-.5801.6846-1.0332,1.1992-1.3564.5156-.3232,1.0898-.4854,1.7227-.4854,1.0078,0,1.7852.3213,2.335.9639.5488.6426.8232,1.5518.8232,2.7275v.6699h-4.833c.0508.6104.2539,1.0938.6123,1.4492.3574.3555.8076.5332,1.3496.5332.7617,0,1.3809-.3076,1.8594-.9229l.8955.8545c-.2959.4424-.6914.7852-1.1855,1.0293-.4951.2432-1.0498.3652-1.665.3652Zm-.1982-6.3369c-.4551,0-.8232.1592-1.1035.4785s-.459.7637-.5371,1.333h3.165v-.123c-.0361-.5557-.1846-.9766-.4443-1.2617-.2598-.2842-.6191-.4268-1.0801-.4268Z"/><path class="cls-9" d="m141.836,198.623l2.8711,7.6289,2.8643-7.6289h2.2354v9.9531h-1.7227v-3.2812l.1709-4.3887-2.9395,7.6699h-1.2373l-2.9326-7.6631.1709,4.3818v3.2812h-1.7227v-9.9531h2.2422Z"/><path class="cls-9" d="m151.379,204.8095c0-.7246.1436-1.3779.4307-1.958.2871-.582.6904-1.0283,1.21-1.3398.5195-.3125,1.1167-.4688,1.791-.4688.998,0,1.8081.3213,2.4302.9639s.958,1.4951,1.0083,2.5566l.0068.3896c0,.7295-.1401,1.3809-.4204,1.9551s-.6812,1.0186-1.2031,1.333-1.1245.4717-1.8081.4717c-1.0435,0-1.8789-.3477-2.5054-1.043-.6265-.6943-.9399-1.6211-.9399-2.7783v-.082Zm1.6611.1436c0,.7607.1572,1.3574.4717,1.7871.3145.4316.752.6465,1.3125.6465s.9971-.2188,1.3091-.6562.4683-1.0781.4683-1.9209c0-.7471-.1606-1.3398-.4819-1.7773s-.7578-.6562-1.3091-.6562c-.5425,0-.9731.2158-1.292.6455-.3188.4316-.4785,1.0752-.4785,1.9316Z"/><path class="cls-9" d="m161.2022,201.1796l.0479.8545c.5469-.6611,1.2646-.9912,2.1533-.9912,1.5405,0,2.3242.8818,2.3516,2.6455v4.8877h-1.6611v-4.792c0-.4697-.1016-.8174-.3042-1.042-.2026-.2266-.5342-.3389-.9946-.3389-.6699,0-1.1689.3027-1.4971.9092v5.2637h-1.6611v-7.3965h1.5654Z"/><path class="cls-9" d="m167.4503,199.2587c0-.2549.0811-.4668.2427-.6357s.3931-.2529.6938-.2529.5332.084.6973.2529.2461.3809.2461.6357c0,.251-.082.459-.2461.626-.1641.166-.3965.249-.6973.249s-.5322-.083-.6938-.249c-.1616-.167-.2427-.375-.2427-.626Zm1.7637,9.3174h-1.6611v-7.3965h1.6611v7.3965Z"/><path class="cls-9" d="m173.1036,199.3818v1.7979h1.3057v1.2305h-1.3057v4.1289c0,.2822.0557.4863.1675.6113.1118.126.311.1885.5981.1885.1914,0,.3857-.0225.5811-.0684v1.2852c-.3779.1045-.7422.1572-1.0938.1572-1.2759,0-1.9141-.7041-1.9141-2.1123v-4.1904h-1.2168v-1.2305h1.2168v-1.7979h1.6611Z"/><path class="cls-9" d="m175.1612,204.8095c0-.7246.1436-1.3779.4307-1.958.2871-.582.6904-1.0283,1.21-1.3398.5195-.3125,1.1172-.4688,1.791-.4688.998,0,1.8086.3213,2.4307.9639s.958,1.4951,1.0078,2.5566l.0068.3896c0,.7295-.1396,1.3809-.4199,1.9551s-.6816,1.0186-1.2031,1.333c-.5225.3145-1.125.4717-1.8086.4717-1.043,0-1.8789-.3477-2.5049-1.043-.627-.6943-.9404-1.6211-.9404-2.7783v-.082Zm1.6611.1436c0,.7607.1572,1.3574.4717,1.7871.3145.4316.752.6465,1.3125.6465s.9971-.2188,1.3096-.6562c.3115-.4375.4678-1.0781.4678-1.9209,0-.7471-.1602-1.3398-.4814-1.7773s-.7578-.6562-1.3096-.6562c-.542,0-.9727.2158-1.292.6455-.3184.4316-.4785,1.0752-.4785,1.9316Z"/><path class="cls-9" d="m187.3155,202.6972c-.2188-.0361-.4443-.0547-.6768-.0547-.7607,0-1.2734.292-1.5381.875v5.0586h-1.6611v-7.3965h1.5859l.041.8271c.4014-.6426.957-.9639,1.668-.9639.2373,0,.4336.0322.5879.0957l-.0068,1.5586Z"/><path class="cls-9" d="m188.3682,199.2587c0-.2549.0811-.4668.2432-.6357.1611-.1689.3926-.2529.6934-.2529s.5332.084.6973.2529.2461.3809.2461.6357c0,.251-.082.459-.2461.626-.1641.166-.3965.249-.6973.249s-.5322-.083-.6934-.249c-.1621-.167-.2432-.375-.2432-.626Zm1.7637,9.3174h-1.6611v-7.3965h1.6611v7.3965Z"/><path class="cls-9" d="m193.4815,201.1796l.0479.8545c.5469-.6611,1.2646-.9912,2.1533-.9912,1.541,0,2.3242.8818,2.3516,2.6455v4.8877h-1.6611v-4.792c0-.4697-.1016-.8174-.3037-1.042-.2031-.2266-.5342-.3389-.9951-.3389-.6699,0-1.1689.3027-1.4971.9092v5.2637h-1.6611v-7.3965h1.5654Z"/><path class="cls-9" d="m199.4356,204.8232c0-1.1484.2705-2.0654.8105-2.751.54-.6865,1.2568-1.0293,2.1494-1.0293.8438,0,1.5068.2939,1.9893.8818l.0752-.7451h1.4971v7.1709c0,.9707-.3018,1.7363-.9053,2.2969-.6045.5605-1.4189.8408-2.4443.8408-.542,0-1.0723-.1133-1.5889-.3379-.5176-.2266-.9102-.5215-1.1797-.8857l.7861-.998c.5107.6064,1.1396.9092,1.8867.9092.5518,0,.9873-.1494,1.3057-.4473.3193-.2988.4785-.7373.4785-1.3164v-.499c-.4785.5332-1.1162.7998-1.9141.7998-.8652,0-1.5732-.3438-2.1221-1.0322-.5498-.6885-.8242-1.6406-.8242-2.8574Zm1.6543.1436c0,.7432.1514,1.3271.4551,1.7539.3027.4258.7236.6387,1.2607.6387.6699,0,1.167-.2871,1.4902-.8613v-3.2539c-.3145-.5605-.8066-.8408-1.4766-.8408-.5469,0-.9717.2168-1.2744.6494-.3037.4326-.4551,1.0713-.4551,1.9141Z"/><path class="cls-9" d="m149.9947,221.6855v3.6914h-1.7295v-9.9531h3.8076c1.1118,0,1.9951.29,2.6489.8691s.981,1.3457.981,2.2988c0,.9766-.3203,1.7363-.9604,2.2793s-1.5371.8145-2.6899.8145h-2.0576Zm0-1.3945h2.0781c.6152,0,1.0845-.1445,1.4082-.4336.3237-.29.4854-.708.4854-1.2549,0-.5381-.1641-.9678-.4922-1.2881-.3281-.3223-.7793-.4873-1.3535-.4961h-2.126v3.4727Z"/><path class="cls-9" d="m160.9254,219.498c-.2188-.0361-.4443-.0547-.6768-.0547-.7612,0-1.2739.292-1.5381.875v5.0586h-1.6611v-7.3965h1.5859l.041.8271c.4009-.6426.957-.9639,1.668-.9639.2368,0,.4331.0322.5879.0957l-.0068,1.5586Z"/><path class="cls-9" d="m161.4175,221.6103c0-.7246.1436-1.3779.4307-1.958.2871-.582.6904-1.0283,1.21-1.3398.5195-.3125,1.1167-.4688,1.791-.4688.998,0,1.8081.3213,2.4302.9639s.958,1.4951,1.0083,2.5566l.0068.3896c0,.7295-.1401,1.3809-.4204,1.9551s-.6812,1.0186-1.2031,1.333-1.1245.4717-1.8081.4717c-1.0435,0-1.8789-.3477-2.5054-1.043-.6265-.6943-.9399-1.6211-.9399-2.7783v-.082Zm1.6611.1436c0,.7607.1572,1.3574.4717,1.7871.3145.4316.752.6465,1.3125.6465s.9971-.2188,1.3091-.6562.4683-1.0781.4683-1.9209c0-.7471-.1606-1.3398-.4819-1.7773s-.7578-.6562-1.3091-.6562c-.5425,0-.9731.2158-1.292.6455-.3188.4316-.4785,1.0752-.4785,1.9316Z"/><path class="cls-9" d="m172.7379,224.1874c.4146,0,.7593-.1211,1.0327-.3623s.4189-.54.4375-.8955h1.5654c-.0186.46-.1621.8896-.4307,1.2891-.2695.3984-.6338.7139-1.0938.9463-.4609.2324-.9575.3486-1.4907.3486-1.0347,0-1.855-.335-2.4609-1.0049s-.9092-1.5947-.9092-2.7754v-.1709c0-1.126.3008-2.0273.9023-2.7031.6016-.6777,1.4219-1.0156,2.4609-1.0156.8794,0,1.5962.2559,2.1499.7695.5537.5117.8447,1.1855.8721,2.0195h-1.5654c-.0186-.4238-.1631-.7725-.4346-1.0459-.2705-.2734-.6162-.4102-1.0356-.4102-.5376,0-.9526.1943-1.2441.585-.2915.3887-.4399.9805-.4443,1.7734v.2666c0,.8018.1445,1.4004.4341,1.7939.2896.3945.7075.5918,1.2544.5918Z"/><path class="cls-9" d="m180.2852,225.5136c-1.0527,0-1.9062-.332-2.5605-.9941-.6533-.6641-.9805-1.5469-.9805-2.6494v-.2051c0-.7383.1426-1.3975.4268-1.9795.2852-.5801.6846-1.0332,1.2002-1.3564.5146-.3232,1.0889-.4854,1.7227-.4854,1.0068,0,1.7852.3213,2.334.9639.5498.6426.8242,1.5518.8242,2.7275v.6699h-4.833c.0498.6104.2539,1.0938.6113,1.4492.3584.3555.8076.5332,1.3506.5332.7607,0,1.3809-.3076,1.8594-.9229l.8955.8545c-.2969.4424-.6914.7852-1.1865,1.0293-.4941.2432-1.0488.3652-1.6641.3652Zm-.1982-6.3369c-.4561,0-.8242.1592-1.1045.4785s-.459.7637-.5361,1.333h3.165v-.123c-.0371-.5557-.1846-.9766-.4443-1.2617-.2598-.2842-.6201-.4268-1.0801-.4268Z"/><path class="cls-9" d="m188.6866,223.3671c0-.2959-.1221-.5215-.3662-.6768-.2432-.1553-.6484-.292-1.2129-.4102-.5654-.1182-1.0371-.2686-1.415-.4512-.8301-.4014-1.2441-.9824-1.2441-1.7432,0-.6377.2686-1.1709.8066-1.5996.5371-.4287,1.2207-.6426,2.0508-.6426.8838,0,1.5986.2188,2.1426.6562.5449.4375.8174,1.0049.8174,1.7021h-1.6611c0-.3193-.1191-.585-.3555-.7959-.2373-.2129-.5518-.3184-.9434-.3184-.3652,0-.6621.084-.8926.2529-.2295.1689-.3447.3945-.3447.6768,0,.2549.1064.4531.3213.5947.2139.1416.6465.2842,1.2988.4268.6514.1445,1.1631.3145,1.5342.5137.3721.1973.6475.4355.8271.7139.1807.2783.2705.6152.2705,1.0117,0,.665-.2764,1.2041-.8271,1.6162-.5518.4131-1.2744.6191-2.167.6191-.6064,0-1.1465-.1094-1.6201-.3281-.4746-.2188-.8438-.5195-1.1074-.9023-.2646-.3828-.3965-.7949-.3965-1.2373h1.6133c.0225.3916.1709.6943.4443.9053.2734.2129.6357.3184,1.0869.3184.4375,0,.7695-.083.998-.25.2275-.166.3418-.3838.3418-.6523Z"/><path class="cls-9" d="m195.9122,223.3671c0-.2959-.1221-.5215-.3662-.6768-.2432-.1553-.6484-.292-1.2129-.4102-.5654-.1182-1.0371-.2686-1.415-.4512-.8301-.4014-1.2441-.9824-1.2441-1.7432,0-.6377.2686-1.1709.8066-1.5996.5371-.4287,1.2207-.6426,2.0508-.6426.8838,0,1.5986.2188,2.1426.6562.5449.4375.8174,1.0049.8174,1.7021h-1.6611c0-.3193-.1191-.585-.3555-.7959-.2373-.2129-.5518-.3184-.9434-.3184-.3652,0-.6621.084-.8926.2529-.2295.1689-.3447.3945-.3447.6768,0,.2549.1064.4531.3213.5947.2139.1416.6465.2842,1.2988.4268.6514.1445,1.1631.3145,1.5342.5137.3721.1973.6475.4355.8271.7139.1807.2783.2705.6152.2705,1.0117,0,.665-.2764,1.2041-.8271,1.6162-.5518.4131-1.2744.6191-2.167.6191-.6064,0-1.1465-.1094-1.6201-.3281-.4746-.2188-.8438-.5195-1.1074-.9023-.2646-.3828-.3965-.7949-.3965-1.2373h1.6133c.0225.3916.1709.6943.4443.9053.2734.2129.6357.3184,1.0869.3184.4375,0,.7695-.083.998-.25.2275-.166.3418-.3838.3418-.6523Z"/></svg>